<?xml version="1.0" encoding="UTF-8" standalone="no"?>
<!-- Created with Inkscape (http://www.inkscape.org/) -->

<svg
   xmlns:dc="http://purl.org/dc/elements/1.1/"
   xmlns:cc="http://creativecommons.org/ns#"
   xmlns:rdf="http://www.w3.org/1999/02/22-rdf-syntax-ns#"
   xmlns:svg="http://www.w3.org/2000/svg"
   xmlns="http://www.w3.org/2000/svg"
   xmlns:sodipodi="http://sodipodi.sourceforge.net/DTD/sodipodi-0.dtd"
   xmlns:inkscape="http://www.inkscape.org/namespaces/inkscape"
   width="72.501778mm"
   height="77.450508mm"
   viewBox="0 0 256.89605 279.00435"
   id="svg2"
   version="1.1"
   inkscape:version="0.91 r13725"
   sodipodi:docname="Arco.svg"
   inkscape:export-filename="D:\Deiby\Documentos\Proyectos\Inkscape\El Escudo de  la República Bolivariana de Venezuela\ESCUDO_DE_VENEZUELA006.png"
   inkscape:export-xdpi="142.07108"
   inkscape:export-ydpi="142.07108">
  <title
     id="title16980">Escudo de Venezuela</title>
  <defs
     id="defs4" />
  <sodipodi:namedview
     id="base"
     pagecolor="#ffffff"
     bordercolor="#666666"
     borderopacity="1.0"
     inkscape:pageopacity="0.0"
     inkscape:pageshadow="2"
     inkscape:zoom="2.8284273"
     inkscape:cx="97.454151"
     inkscape:cy="116.32015"
     inkscape:document-units="px"
     inkscape:current-layer="g18007"
     showgrid="false"
     fit-margin-top="0"
     fit-margin-left="0"
     fit-margin-right="0"
     fit-margin-bottom="0"
     showguides="false"
     inkscape:guide-bbox="true"
     inkscape:snap-others="false"
     inkscape:window-width="1920"
     inkscape:window-height="1018"
     inkscape:window-x="-8"
     inkscape:window-y="-8"
     inkscape:window-maximized="1">
    <sodipodi:guide
       position="580.73672,233.65189"
       orientation="0,1"
       id="guide17602" />
  </sodipodi:namedview>
  <metadata
     id="metadata7">
    <rdf:RDF>
      <cc:Work
         rdf:about="">
        <dc:format>image/svg+xml</dc:format>
        <dc:type
           rdf:resource="http://purl.org/dc/dcmitype/StillImage" />
        <dc:title>Escudo de Venezuela</dc:title>
        <dc:date>12/05/2015</dc:date>
        <dc:creator>
          <cc:Agent>
            <dc:title>Deiby A. Vargas R.</dc:title>
          </cc:Agent>
        </dc:creator>
        <dc:language>Español</dc:language>
        <dc:description>El Escudo de  la República Bolivariana de Venezuela</dc:description>
        <dc:rights>
          <cc:Agent>
            <dc:title>Creative Commons</dc:title>
          </cc:Agent>
        </dc:rights>
        <cc:license
           rdf:resource="http://creativecommons.org/licenses/by-nc/3.0/" />
        <dc:source>Venezuela</dc:source>
        <dc:relation>Venezuela</dc:relation>
      </cc:Work>
      <cc:License
         rdf:about="http://creativecommons.org/licenses/by-nc/3.0/">
        <cc:permits
           rdf:resource="http://creativecommons.org/ns#Reproduction" />
        <cc:permits
           rdf:resource="http://creativecommons.org/ns#Distribution" />
        <cc:requires
           rdf:resource="http://creativecommons.org/ns#Notice" />
        <cc:requires
           rdf:resource="http://creativecommons.org/ns#Attribution" />
        <cc:prohibits
           rdf:resource="http://creativecommons.org/ns#CommercialUse" />
        <cc:permits
           rdf:resource="http://creativecommons.org/ns#DerivativeWorks" />
      </cc:License>
    </rdf:RDF>
  </metadata>
  <g
     inkscape:groupmode="layer"
     id="layer7"
     inkscape:label="Carcaj"
     transform="translate(-321.13869,-628.60753)"
     sodipodi:insensitive="true">
    <g
       style="display:inline"
       id="g18007"
       transform="translate(-25.973867,-5.459042)">
      <path
         style="fill:#000000;fill-rule:evenodd;stroke:#000000;stroke-width:1px;stroke-linecap:butt;stroke-linejoin:miter;stroke-opacity:1"
         d="m 490.77678,708.08604 c 0,0 -2.54194,-2.65346 -11.31428,-2.66229 -8.77234,-0.009 -11.31959,2.63948 -11.31959,2.63948 l -0.004,4.19643 21.91959,0.0221 z"
         id="path17822"
         inkscape:connector-curvature="0"
         sodipodi:nodetypes="cscccc" />
      <g
         id="g18257"
         transform="translate(-172.61414,-22.729176)">
        <path
           sodipodi:nodetypes="ccccccccc"
           inkscape:connector-curvature="0"
           id="path18259"
           d="m 650.91648,672.24944 -3.64661,3.99633 -3.63868,-4.00367 -0.006,5.55583 -0.006,5.55583 3.63858,4.00366 3.64672,-3.99632 0.006,-5.55583 z"
           style="opacity:1;fill:#614d3e;fill-opacity:1;fill-rule:nonzero;stroke:none;stroke-width:2;stroke-linecap:round;stroke-linejoin:round;stroke-miterlimit:4;stroke-dasharray:none;stroke-dashoffset:2.33072615;stroke-opacity:1" />
        <path
           inkscape:connector-curvature="0"
           id="path18261"
           d="m 650.91647,672.666 -1.1e-4,0.21083 -3.62371,3.97309 -3.66102,-4.02713 -10e-4,-0.22284 3.66665,4.03342 3.61941,-3.96737 z m -0.002,0.64036 1.2e-4,0.20688 -3.64716,3.99956 -3.63673,-4.00183 -0.001,-0.22285 3.64419,4.00824 3.64059,-3.99001 z m 1.6e-4,0.60668 -10e-5,0.21084 -3.66823,4.02021 -3.61799,-3.98085 6.9e-4,-0.22075 3.62171,3.98505 3.66392,-4.0145 z m -0.002,0.57472 0,0.20886 -3.70028,4.05811 -3.58445,-3.94308 8e-4,-0.22272 3.58807,3.94925 3.69586,-4.05042 z m 3.4e-4,0.63851 1.2e-4,0.20688 -3.72565,4.08447 -3.56007,-3.91778 -0.001,-0.22087 3.56775,3.92222 3.71919,-4.07492 z m -0.002,0.60655 -1.1e-4,0.21084 -3.74479,4.10525 -3.53952,-3.89472 -10e-4,-0.22283 3.54516,3.901 3.74049,-4.09954 z m 2.8e-4,0.67432 -1.1e-4,0.21083 -3.69156,4.0467 -3.59383,-3.95358 -0.001,-0.22285 3.59946,3.95988 3.68726,-4.04098 z m -0.002,0.63839 0,0.20885 -3.71511,4.07316 -3.56933,-3.92827 -10e-4,-0.22285 3.577,3.93469 3.70867,-4.06558 z m 5e-5,0.60865 10e-4,0.15125 -0.003,0.0575 -3.7363,4.0958 -3.5508,-3.9073 6.9e-4,-0.22075 3.55453,3.9115 3.73177,-4.08811 z m -0.002,0.64236 -1.1e-4,0.21083 -3.72146,4.08076 -3.56391,-3.92 8e-4,-0.22274 3.56752,3.92619 3.71716,-4.07504 z m 3.4e-4,0.63851 10e-6,0.20885 -3.74684,4.10712 -3.53962,-3.89471 6.9e-4,-0.22075 3.54528,3.89902 3.74048,-4.09953 z m -0.002,0.60656 -1.1e-4,0.21083 -3.76609,4.12986 -3.51897,-3.87163 8e-4,-0.22273 3.52269,3.87781 3.76178,-4.12413 z m 4.6e-4,0.63653 -1.1e-4,0.21083 -3.7192,4.07691 -3.56583,-3.92211 -10e-4,-0.22482 3.57135,3.93038 3.7149,-4.07119 z m -0.002,0.63839 10e-6,0.20885 -3.74275,4.10338 -3.54325,-3.89891 6.9e-4,-0.22075 3.54901,3.90323 3.73629,-4.0958 z m 1.7e-4,0.60667 -1.1e-4,0.21084 -3.76393,4.126 -3.5228,-3.87582 6.9e-4,-0.22075 3.52653,3.88002 3.75952,-4.1203 z m -10e-4,0.66231 -1.1e-4,0.21083 -3.73425,4.09392 -3.55082,-3.90531 -0.001,-0.22483 3.55634,3.91359 3.72985,-4.08821 z m 3.4e-4,0.6385 1e-5,0.20886 -3.75962,4.12028 -3.52653,-3.88002 -10e-4,-0.22285 3.534,3.88643 3.75317,-4.11271 z"
           style="opacity:0.2;fill:#ffffff;fill-opacity:1;fill-rule:nonzero;stroke:none;stroke-width:2;stroke-linecap:round;stroke-linejoin:round;stroke-miterlimit:4;stroke-dasharray:none;stroke-dashoffset:2.33072615;stroke-opacity:1" />
        <path
           inkscape:connector-curvature="0"
           id="path18263"
           d="m 647.29935,670.29262 c 0.55148,0.01 0.99155,0.46313 0.98334,1.01466 l -0.1018,231.14871 c 0.0171,1.35231 -2.02047,1.35029 -1.99999,-0.002 l 0.1018,-231.1487 c -0.009,-0.56376 0.45293,-1.02201 1.01665,-1.01265 z"
           style="color:#000000;font-style:normal;font-variant:normal;font-weight:normal;font-stretch:normal;font-size:medium;line-height:normal;font-family:sans-serif;text-indent:0;text-align:start;text-decoration:none;text-decoration-line:none;text-decoration-style:solid;text-decoration-color:#000000;letter-spacing:normal;word-spacing:normal;text-transform:none;direction:ltr;block-progression:tb;writing-mode:lr-tb;baseline-shift:baseline;text-anchor:start;white-space:normal;clip-rule:nonzero;display:inline;overflow:visible;visibility:visible;opacity:1;isolation:auto;mix-blend-mode:normal;color-interpolation:sRGB;color-interpolation-filters:linearRGB;solid-color:#000000;solid-opacity:1;fill:#361600;fill-opacity:1;fill-rule:evenodd;stroke:#000000;stroke-width:0.20333301;stroke-linecap:round;stroke-linejoin:round;stroke-miterlimit:4;stroke-dasharray:none;stroke-dashoffset:0;stroke-opacity:1;color-rendering:auto;image-rendering:auto;shape-rendering:auto;text-rendering:auto;enable-background:accumulate"
           sodipodi:nodetypes="cccccc" />
        <ellipse
           transform="matrix(-0.99829459,-0.05837726,-0.05837726,0.99829459,0,0)"
           ry="0.69605106"
           rx="0.82978618"
           cy="632.21747"
           cx="-685.37012"
           id="ellipse18265"
           style="opacity:0.475;fill:#000000;fill-opacity:1;stroke:none;stroke-width:3;stroke-linecap:round;stroke-linejoin:round;stroke-miterlimit:4;stroke-dasharray:none;stroke-opacity:1" />
        <ellipse
           transform="matrix(-0.99829459,-0.05837726,-0.05837726,0.99829459,0,0)"
           style="opacity:0.09100001;fill:#000000;fill-opacity:1;stroke:none;stroke-width:3;stroke-linecap:round;stroke-linejoin:round;stroke-miterlimit:4;stroke-dasharray:none;stroke-opacity:1"
           id="ellipse18267"
           cx="-685.37012"
           cy="632.15564"
           rx="0.57604867"
           ry="0.41796741" />
        <path
           sodipodi:nodetypes="ccccccc"
           inkscape:connector-curvature="0"
           id="path18269"
           d="m 646.28257,671.60138 c 0.19548,0.29164 0.5561,0.48321 0.95492,0.50736 l 0.0102,5.9e-4 -0.1011,231.35477 c -0.49236,-0.0163 -0.97344,-0.34914 -0.96336,-1.0091 l 0.10162,-230.85349 z"
           style="color:#000000;font-style:normal;font-variant:normal;font-weight:normal;font-stretch:normal;font-size:medium;line-height:normal;font-family:sans-serif;text-indent:0;text-align:start;text-decoration:none;text-decoration-line:none;text-decoration-style:solid;text-decoration-color:#000000;letter-spacing:normal;word-spacing:normal;text-transform:none;direction:ltr;block-progression:tb;writing-mode:lr-tb;baseline-shift:baseline;text-anchor:start;white-space:normal;clip-rule:nonzero;display:inline;overflow:visible;visibility:visible;opacity:0.25700001;isolation:auto;mix-blend-mode:normal;color-interpolation:sRGB;color-interpolation-filters:linearRGB;solid-color:#000000;solid-opacity:1;fill:#000000;fill-opacity:1;fill-rule:evenodd;stroke:none;stroke-width:2;stroke-linecap:round;stroke-linejoin:round;stroke-miterlimit:4;stroke-dasharray:none;stroke-dashoffset:0;stroke-opacity:1;color-rendering:auto;image-rendering:auto;shape-rendering:auto;text-rendering:auto;enable-background:accumulate" />
        <path
           style="opacity:1;fill:#666666;fill-opacity:1;stroke:#000000;stroke-width:0.20333301;stroke-linecap:round;stroke-linejoin:round;stroke-miterlimit:4;stroke-dasharray:none;stroke-opacity:1"
           d="m 649.68075,904.97771 c 0,1.9271 -2.02433,14.4214 -2.4162,14.4214 -0.39177,3e-5 -2.41604,-12.49434 -2.41604,-14.42142 1.08982,-0.75475 0.85763,-1.11281 0.85764,-2.49021 4e-5,-2.39042 0.64708,-1.37864 1.47009,-1.37868 0.90675,-7e-5 1.50313,-0.96562 1.50324,1.32959 6.8e-4,1.37599 -0.16223,1.74657 1.00127,2.53932 z"
           id="path18271"
           inkscape:connector-curvature="0"
           sodipodi:nodetypes="cscsssc" />
        <path
           style="opacity:0.23600003;fill:#000000;fill-opacity:1;stroke:none;stroke-width:0.5;stroke-linecap:round;stroke-linejoin:round;stroke-miterlimit:4;stroke-dasharray:none;stroke-opacity:1"
           d="m 646.13311,900.9021 c -0.26465,0.0458 -0.4269,0.38935 -0.42692,1.58457 -10e-6,1.37739 0.232,1.73528 -0.85782,2.49003 10e-6,1.77734 1.72049,12.52127 2.29544,14.18367 -0.70809,-5.1307 -1.47417,-12.31013 -1.40784,-13.91759 1.4891,-0.94308 1.19924,-1.43054 1.2748,-3.26047 0.0146,-0.35554 0.0406,-0.636 0.0715,-0.88562 -0.37257,-0.0333 -0.70524,-0.23686 -0.94914,-0.19459 z"
           id="path18273"
           inkscape:connector-curvature="0" />
        <path
           style="opacity:0.99299999;fill:#333333;fill-opacity:1;stroke:none;stroke-width:0.13020974;stroke-linecap:round;stroke-linejoin:round;stroke-miterlimit:4;stroke-dasharray:none;stroke-opacity:1"
           d="m 649.51669,905.04223 a 2.8673128,2.0492152 0 0 1 -2.24579,0.77839 2.8673128,2.0492152 0 0 1 -2.18027,-0.72279 2.4295552,1.8665332 0 0 0 1.85461,1.05241 c 0.008,2.76047 0.22811,12.43208 0.34949,12.4323 0.12131,1.7e-4 0.34116,-9.67867 0.34947,-12.43628 a 2.4295552,1.8665332 0 0 0 1.87249,-1.10403 z"
           id="path18275"
           inkscape:connector-curvature="0" />
      </g>
      <g
         transform="translate(-168.4204,-15.104188)"
         id="g18237">
        <path
           style="opacity:1;fill:#614d3e;fill-opacity:1;fill-rule:nonzero;stroke:none;stroke-width:2;stroke-linecap:round;stroke-linejoin:round;stroke-miterlimit:4;stroke-dasharray:none;stroke-dashoffset:2.33072615;stroke-opacity:1"
           d="m 650.91648,672.24944 -3.64661,3.99633 -3.63868,-4.00367 -0.006,5.55583 -0.006,5.55583 3.63858,4.00366 3.64672,-3.99632 0.006,-5.55583 z"
           id="path18239"
           inkscape:connector-curvature="0"
           sodipodi:nodetypes="ccccccccc" />
        <path
           style="opacity:0.2;fill:#ffffff;fill-opacity:1;fill-rule:nonzero;stroke:none;stroke-width:2;stroke-linecap:round;stroke-linejoin:round;stroke-miterlimit:4;stroke-dasharray:none;stroke-dashoffset:2.33072615;stroke-opacity:1"
           d="m 650.91647,672.666 -1.1e-4,0.21083 -3.62371,3.97309 -3.66102,-4.02713 -10e-4,-0.22284 3.66665,4.03342 3.61941,-3.96737 z m -0.002,0.64036 1.2e-4,0.20688 -3.64716,3.99956 -3.63673,-4.00183 -0.001,-0.22285 3.64419,4.00824 3.64059,-3.99001 z m 1.6e-4,0.60668 -10e-5,0.21084 -3.66823,4.02021 -3.61799,-3.98085 6.9e-4,-0.22075 3.62171,3.98505 3.66392,-4.0145 z m -0.002,0.57472 0,0.20886 -3.70028,4.05811 -3.58445,-3.94308 8e-4,-0.22272 3.58807,3.94925 3.69586,-4.05042 z m 3.4e-4,0.63851 1.2e-4,0.20688 -3.72565,4.08447 -3.56007,-3.91778 -0.001,-0.22087 3.56775,3.92222 3.71919,-4.07492 z m -0.002,0.60655 -1.1e-4,0.21084 -3.74479,4.10525 -3.53952,-3.89472 -10e-4,-0.22283 3.54516,3.901 3.74049,-4.09954 z m 2.8e-4,0.67432 -1.1e-4,0.21083 -3.69156,4.0467 -3.59383,-3.95358 -0.001,-0.22285 3.59946,3.95988 3.68726,-4.04098 z m -0.002,0.63839 0,0.20885 -3.71511,4.07316 -3.56933,-3.92827 -10e-4,-0.22285 3.577,3.93469 3.70867,-4.06558 z m 5e-5,0.60865 10e-4,0.15125 -0.003,0.0575 -3.7363,4.0958 -3.5508,-3.9073 6.9e-4,-0.22075 3.55453,3.9115 3.73177,-4.08811 z m -0.002,0.64236 -1.1e-4,0.21083 -3.72146,4.08076 -3.56391,-3.92 8e-4,-0.22274 3.56752,3.92619 3.71716,-4.07504 z m 3.4e-4,0.63851 10e-6,0.20885 -3.74684,4.10712 -3.53962,-3.89471 6.9e-4,-0.22075 3.54528,3.89902 3.74048,-4.09953 z m -0.002,0.60656 -1.1e-4,0.21083 -3.76609,4.12986 -3.51897,-3.87163 8e-4,-0.22273 3.52269,3.87781 3.76178,-4.12413 z m 4.6e-4,0.63653 -1.1e-4,0.21083 -3.7192,4.07691 -3.56583,-3.92211 -10e-4,-0.22482 3.57135,3.93038 3.7149,-4.07119 z m -0.002,0.63839 10e-6,0.20885 -3.74275,4.10338 -3.54325,-3.89891 6.9e-4,-0.22075 3.54901,3.90323 3.73629,-4.0958 z m 1.7e-4,0.60667 -1.1e-4,0.21084 -3.76393,4.126 -3.5228,-3.87582 6.9e-4,-0.22075 3.52653,3.88002 3.75952,-4.1203 z m -10e-4,0.66231 -1.1e-4,0.21083 -3.73425,4.09392 -3.55082,-3.90531 -0.001,-0.22483 3.55634,3.91359 3.72985,-4.08821 z m 3.4e-4,0.6385 1e-5,0.20886 -3.75962,4.12028 -3.52653,-3.88002 -10e-4,-0.22285 3.534,3.88643 3.75317,-4.11271 z"
           id="path18241"
           inkscape:connector-curvature="0" />
        <path
           sodipodi:nodetypes="cccccc"
           style="color:#000000;font-style:normal;font-variant:normal;font-weight:normal;font-stretch:normal;font-size:medium;line-height:normal;font-family:sans-serif;text-indent:0;text-align:start;text-decoration:none;text-decoration-line:none;text-decoration-style:solid;text-decoration-color:#000000;letter-spacing:normal;word-spacing:normal;text-transform:none;direction:ltr;block-progression:tb;writing-mode:lr-tb;baseline-shift:baseline;text-anchor:start;white-space:normal;clip-rule:nonzero;display:inline;overflow:visible;visibility:visible;opacity:1;isolation:auto;mix-blend-mode:normal;color-interpolation:sRGB;color-interpolation-filters:linearRGB;solid-color:#000000;solid-opacity:1;fill:#361600;fill-opacity:1;fill-rule:evenodd;stroke:#000000;stroke-width:0.20333301;stroke-linecap:round;stroke-linejoin:round;stroke-miterlimit:4;stroke-dasharray:none;stroke-dashoffset:0;stroke-opacity:1;color-rendering:auto;image-rendering:auto;shape-rendering:auto;text-rendering:auto;enable-background:accumulate"
           d="m 647.29935,670.29262 c 0.55148,0.01 0.99155,0.46313 0.98334,1.01466 l -0.1018,231.14871 c 0.0171,1.35231 -2.02047,1.35029 -1.99999,-0.002 l 0.1018,-231.1487 c -0.009,-0.56376 0.45293,-1.02201 1.01665,-1.01265 z"
           id="path18243"
           inkscape:connector-curvature="0" />
        <ellipse
           style="opacity:0.475;fill:#000000;fill-opacity:1;stroke:none;stroke-width:3;stroke-linecap:round;stroke-linejoin:round;stroke-miterlimit:4;stroke-dasharray:none;stroke-opacity:1"
           id="ellipse18245"
           cx="-685.37012"
           cy="632.21747"
           rx="0.82978618"
           ry="0.69605106"
           transform="matrix(-0.99829459,-0.05837726,-0.05837726,0.99829459,0,0)" />
        <ellipse
           ry="0.41796741"
           rx="0.57604867"
           cy="632.15564"
           cx="-685.37012"
           id="ellipse18247"
           style="opacity:0.09100001;fill:#000000;fill-opacity:1;stroke:none;stroke-width:3;stroke-linecap:round;stroke-linejoin:round;stroke-miterlimit:4;stroke-dasharray:none;stroke-opacity:1"
           transform="matrix(-0.99829459,-0.05837726,-0.05837726,0.99829459,0,0)" />
        <path
           style="color:#000000;font-style:normal;font-variant:normal;font-weight:normal;font-stretch:normal;font-size:medium;line-height:normal;font-family:sans-serif;text-indent:0;text-align:start;text-decoration:none;text-decoration-line:none;text-decoration-style:solid;text-decoration-color:#000000;letter-spacing:normal;word-spacing:normal;text-transform:none;direction:ltr;block-progression:tb;writing-mode:lr-tb;baseline-shift:baseline;text-anchor:start;white-space:normal;clip-rule:nonzero;display:inline;overflow:visible;visibility:visible;opacity:0.25700001;isolation:auto;mix-blend-mode:normal;color-interpolation:sRGB;color-interpolation-filters:linearRGB;solid-color:#000000;solid-opacity:1;fill:#000000;fill-opacity:1;fill-rule:evenodd;stroke:none;stroke-width:2;stroke-linecap:round;stroke-linejoin:round;stroke-miterlimit:4;stroke-dasharray:none;stroke-dashoffset:0;stroke-opacity:1;color-rendering:auto;image-rendering:auto;shape-rendering:auto;text-rendering:auto;enable-background:accumulate"
           d="m 646.28257,671.60138 c 0.19548,0.29164 0.5561,0.48321 0.95492,0.50736 l 0.0102,5.9e-4 -0.1011,231.35477 c -0.49236,-0.0163 -0.97344,-0.34914 -0.96336,-1.0091 l 0.10162,-230.85349 z"
           id="path18249"
           inkscape:connector-curvature="0"
           sodipodi:nodetypes="ccccccc" />
        <path
           sodipodi:nodetypes="cscsssc"
           inkscape:connector-curvature="0"
           id="path18251"
           d="m 649.68075,904.97771 c 0,1.9271 -2.02433,14.4214 -2.4162,14.4214 -0.39177,3e-5 -2.41604,-12.49434 -2.41604,-14.42142 1.08982,-0.75475 0.85763,-1.11281 0.85764,-2.49021 4e-5,-2.39042 0.64708,-1.37864 1.47009,-1.37868 0.90675,-7e-5 1.50313,-0.96562 1.50324,1.32959 6.8e-4,1.37599 -0.16223,1.74657 1.00127,2.53932 z"
           style="opacity:1;fill:#666666;fill-opacity:1;stroke:#000000;stroke-width:0.20333301;stroke-linecap:round;stroke-linejoin:round;stroke-miterlimit:4;stroke-dasharray:none;stroke-opacity:1" />
        <path
           inkscape:connector-curvature="0"
           id="path18253"
           d="m 646.13311,900.9021 c -0.26465,0.0458 -0.4269,0.38935 -0.42692,1.58457 -10e-6,1.37739 0.232,1.73528 -0.85782,2.49003 10e-6,1.77734 1.72049,12.52127 2.29544,14.18367 -0.70809,-5.1307 -1.47417,-12.31013 -1.40784,-13.91759 1.4891,-0.94308 1.19924,-1.43054 1.2748,-3.26047 0.0146,-0.35554 0.0406,-0.636 0.0715,-0.88562 -0.37257,-0.0333 -0.70524,-0.23686 -0.94914,-0.19459 z"
           style="opacity:0.23600003;fill:#000000;fill-opacity:1;stroke:none;stroke-width:0.5;stroke-linecap:round;stroke-linejoin:round;stroke-miterlimit:4;stroke-dasharray:none;stroke-opacity:1" />
        <path
           inkscape:connector-curvature="0"
           id="path18255"
           d="m 649.51669,905.04223 a 2.8673128,2.0492152 0 0 1 -2.24579,0.77839 2.8673128,2.0492152 0 0 1 -2.18027,-0.72279 2.4295552,1.8665332 0 0 0 1.85461,1.05241 c 0.008,2.76047 0.22811,12.43208 0.34949,12.4323 0.12131,1.7e-4 0.34116,-9.67867 0.34947,-12.43628 a 2.4295552,1.8665332 0 0 0 1.87249,-1.10403 z"
           style="opacity:0.99299999;fill:#333333;fill-opacity:1;stroke:none;stroke-width:0.13020974;stroke-linecap:round;stroke-linejoin:round;stroke-miterlimit:4;stroke-dasharray:none;stroke-opacity:1" />
      </g>
      <g
         transform="translate(-176.66739,-36.124259)"
         id="g17954">
        <path
           style="opacity:1;fill:#614d3e;fill-opacity:1;fill-rule:nonzero;stroke:none;stroke-width:2;stroke-linecap:round;stroke-linejoin:round;stroke-miterlimit:4;stroke-dasharray:none;stroke-dashoffset:2.33072615;stroke-opacity:1"
           d="m 650.91648,672.24944 -3.64661,3.99633 -3.63868,-4.00367 -0.006,5.55583 -0.006,5.55583 3.63858,4.00366 3.64672,-3.99632 0.006,-5.55583 z"
           id="path17854"
           inkscape:connector-curvature="0"
           sodipodi:nodetypes="ccccccccc" />
        <path
           style="opacity:0.2;fill:#ffffff;fill-opacity:1;fill-rule:nonzero;stroke:none;stroke-width:2;stroke-linecap:round;stroke-linejoin:round;stroke-miterlimit:4;stroke-dasharray:none;stroke-dashoffset:2.33072615;stroke-opacity:1"
           d="m 650.91647,672.666 -1.1e-4,0.21083 -3.62371,3.97309 -3.66102,-4.02713 -10e-4,-0.22284 3.66665,4.03342 3.61941,-3.96737 z m -0.002,0.64036 1.2e-4,0.20688 -3.64716,3.99956 -3.63673,-4.00183 -0.001,-0.22285 3.64419,4.00824 3.64059,-3.99001 z m 1.6e-4,0.60668 -10e-5,0.21084 -3.66823,4.02021 -3.61799,-3.98085 6.9e-4,-0.22075 3.62171,3.98505 3.66392,-4.0145 z m -0.002,0.57472 0,0.20886 -3.70028,4.05811 -3.58445,-3.94308 8e-4,-0.22272 3.58807,3.94925 3.69586,-4.05042 z m 3.4e-4,0.63851 1.2e-4,0.20688 -3.72565,4.08447 -3.56007,-3.91778 -0.001,-0.22087 3.56775,3.92222 3.71919,-4.07492 z m -0.002,0.60655 -1.1e-4,0.21084 -3.74479,4.10525 -3.53952,-3.89472 -10e-4,-0.22283 3.54516,3.901 3.74049,-4.09954 z m 2.8e-4,0.67432 -1.1e-4,0.21083 -3.69156,4.0467 -3.59383,-3.95358 -0.001,-0.22285 3.59946,3.95988 3.68726,-4.04098 z m -0.002,0.63839 0,0.20885 -3.71511,4.07316 -3.56933,-3.92827 -10e-4,-0.22285 3.577,3.93469 3.70867,-4.06558 z m 5e-5,0.60865 10e-4,0.15125 -0.003,0.0575 -3.7363,4.0958 -3.5508,-3.9073 6.9e-4,-0.22075 3.55453,3.9115 3.73177,-4.08811 z m -0.002,0.64236 -1.1e-4,0.21083 -3.72146,4.08076 -3.56391,-3.92 8e-4,-0.22274 3.56752,3.92619 3.71716,-4.07504 z m 3.4e-4,0.63851 10e-6,0.20885 -3.74684,4.10712 -3.53962,-3.89471 6.9e-4,-0.22075 3.54528,3.89902 3.74048,-4.09953 z m -0.002,0.60656 -1.1e-4,0.21083 -3.76609,4.12986 -3.51897,-3.87163 8e-4,-0.22273 3.52269,3.87781 3.76178,-4.12413 z m 4.6e-4,0.63653 -1.1e-4,0.21083 -3.7192,4.07691 -3.56583,-3.92211 -10e-4,-0.22482 3.57135,3.93038 3.7149,-4.07119 z m -0.002,0.63839 10e-6,0.20885 -3.74275,4.10338 -3.54325,-3.89891 6.9e-4,-0.22075 3.54901,3.90323 3.73629,-4.0958 z m 1.7e-4,0.60667 -1.1e-4,0.21084 -3.76393,4.126 -3.5228,-3.87582 6.9e-4,-0.22075 3.52653,3.88002 3.75952,-4.1203 z m -10e-4,0.66231 -1.1e-4,0.21083 -3.73425,4.09392 -3.55082,-3.90531 -0.001,-0.22483 3.55634,3.91359 3.72985,-4.08821 z m 3.4e-4,0.6385 1e-5,0.20886 -3.75962,4.12028 -3.52653,-3.88002 -10e-4,-0.22285 3.534,3.88643 3.75317,-4.11271 z"
           id="path17856"
           inkscape:connector-curvature="0" />
        <path
           sodipodi:nodetypes="cccccc"
           style="color:#000000;font-style:normal;font-variant:normal;font-weight:normal;font-stretch:normal;font-size:medium;line-height:normal;font-family:sans-serif;text-indent:0;text-align:start;text-decoration:none;text-decoration-line:none;text-decoration-style:solid;text-decoration-color:#000000;letter-spacing:normal;word-spacing:normal;text-transform:none;direction:ltr;block-progression:tb;writing-mode:lr-tb;baseline-shift:baseline;text-anchor:start;white-space:normal;clip-rule:nonzero;display:inline;overflow:visible;visibility:visible;opacity:1;isolation:auto;mix-blend-mode:normal;color-interpolation:sRGB;color-interpolation-filters:linearRGB;solid-color:#000000;solid-opacity:1;fill:#361600;fill-opacity:1;fill-rule:evenodd;stroke:#000000;stroke-width:0.20333301;stroke-linecap:round;stroke-linejoin:round;stroke-miterlimit:4;stroke-dasharray:none;stroke-dashoffset:0;stroke-opacity:1;color-rendering:auto;image-rendering:auto;shape-rendering:auto;text-rendering:auto;enable-background:accumulate"
           d="m 647.29935,670.29262 c 0.55148,0.01 0.99155,0.46313 0.98334,1.01466 l -0.1018,231.14871 c 0.0171,1.35231 -2.02047,1.35029 -1.99999,-0.002 l 0.1018,-231.1487 c -0.009,-0.56376 0.45293,-1.02201 1.01665,-1.01265 z"
           id="path17858"
           inkscape:connector-curvature="0" />
        <ellipse
           style="opacity:0.475;fill:#000000;fill-opacity:1;stroke:none;stroke-width:3;stroke-linecap:round;stroke-linejoin:round;stroke-miterlimit:4;stroke-dasharray:none;stroke-opacity:1"
           id="ellipse17860"
           cx="-685.37012"
           cy="632.21747"
           rx="0.82978618"
           ry="0.69605106"
           transform="matrix(-0.99829459,-0.05837726,-0.05837726,0.99829459,0,0)" />
        <ellipse
           ry="0.41796741"
           rx="0.57604867"
           cy="632.15564"
           cx="-685.37012"
           id="ellipse17862"
           style="opacity:0.09100001;fill:#000000;fill-opacity:1;stroke:none;stroke-width:3;stroke-linecap:round;stroke-linejoin:round;stroke-miterlimit:4;stroke-dasharray:none;stroke-opacity:1"
           transform="matrix(-0.99829459,-0.05837726,-0.05837726,0.99829459,0,0)" />
        <path
           style="color:#000000;font-style:normal;font-variant:normal;font-weight:normal;font-stretch:normal;font-size:medium;line-height:normal;font-family:sans-serif;text-indent:0;text-align:start;text-decoration:none;text-decoration-line:none;text-decoration-style:solid;text-decoration-color:#000000;letter-spacing:normal;word-spacing:normal;text-transform:none;direction:ltr;block-progression:tb;writing-mode:lr-tb;baseline-shift:baseline;text-anchor:start;white-space:normal;clip-rule:nonzero;display:inline;overflow:visible;visibility:visible;opacity:0.25700001;isolation:auto;mix-blend-mode:normal;color-interpolation:sRGB;color-interpolation-filters:linearRGB;solid-color:#000000;solid-opacity:1;fill:#000000;fill-opacity:1;fill-rule:evenodd;stroke:none;stroke-width:2;stroke-linecap:round;stroke-linejoin:round;stroke-miterlimit:4;stroke-dasharray:none;stroke-dashoffset:0;stroke-opacity:1;color-rendering:auto;image-rendering:auto;shape-rendering:auto;text-rendering:auto;enable-background:accumulate"
           d="m 646.28257,671.60138 c 0.19548,0.29164 0.5561,0.48321 0.95492,0.50736 l 0.0102,5.9e-4 -0.1011,231.35477 c -0.49236,-0.0163 -0.97344,-0.34914 -0.96336,-1.0091 l 0.10162,-230.85349 z"
           id="path17864"
           inkscape:connector-curvature="0"
           sodipodi:nodetypes="ccccccc" />
        <path
           sodipodi:nodetypes="cscsssc"
           inkscape:connector-curvature="0"
           id="path17890"
           d="m 649.68075,904.97771 c 0,1.9271 -2.02433,14.4214 -2.4162,14.4214 -0.39177,3e-5 -2.41604,-12.49434 -2.41604,-14.42142 1.08982,-0.75475 0.85763,-1.11281 0.85764,-2.49021 4e-5,-2.39042 0.64708,-1.37864 1.47009,-1.37868 0.90675,-7e-5 1.50313,-0.96562 1.50324,1.32959 6.8e-4,1.37599 -0.16223,1.74657 1.00127,2.53932 z"
           style="opacity:1;fill:#666666;fill-opacity:1;stroke:#000000;stroke-width:0.20333301;stroke-linecap:round;stroke-linejoin:round;stroke-miterlimit:4;stroke-dasharray:none;stroke-opacity:1" />
        <path
           inkscape:connector-curvature="0"
           id="path17896"
           d="m 646.13311,900.9021 c -0.26465,0.0458 -0.4269,0.38935 -0.42692,1.58457 -10e-6,1.37739 0.232,1.73528 -0.85782,2.49003 10e-6,1.77734 1.72049,12.52127 2.29544,14.18367 -0.70809,-5.1307 -1.47417,-12.31013 -1.40784,-13.91759 1.4891,-0.94308 1.19924,-1.43054 1.2748,-3.26047 0.0146,-0.35554 0.0406,-0.636 0.0715,-0.88562 -0.37257,-0.0333 -0.70524,-0.23686 -0.94914,-0.19459 z"
           style="opacity:0.23600003;fill:#000000;fill-opacity:1;stroke:none;stroke-width:0.5;stroke-linecap:round;stroke-linejoin:round;stroke-miterlimit:4;stroke-dasharray:none;stroke-opacity:1" />
        <path
           inkscape:connector-curvature="0"
           id="path17900"
           d="m 649.51669,905.04223 a 2.8673128,2.0492152 0 0 1 -2.24579,0.77839 2.8673128,2.0492152 0 0 1 -2.18027,-0.72279 2.4295552,1.8665332 0 0 0 1.85461,1.05241 c 0.008,2.76047 0.22811,12.43208 0.34949,12.4323 0.12131,1.7e-4 0.34116,-9.67867 0.34947,-12.43628 a 2.4295552,1.8665332 0 0 0 1.87249,-1.10403 z"
           style="opacity:0.99299999;fill:#333333;fill-opacity:1;stroke:none;stroke-width:0.13020974;stroke-linecap:round;stroke-linejoin:round;stroke-miterlimit:4;stroke-dasharray:none;stroke-opacity:1" />
      </g>
      <g
         id="g18026"
         transform="translate(-162.43252,-20.137973)">
        <path
           sodipodi:nodetypes="ccccccccc"
           inkscape:connector-curvature="0"
           id="path18028"
           d="m 650.91648,672.24944 -3.64661,3.99633 -3.63868,-4.00367 -0.006,5.55583 -0.006,5.55583 3.63858,4.00366 3.64672,-3.99632 0.006,-5.55583 z"
           style="opacity:1;fill:#614d3e;fill-opacity:1;fill-rule:nonzero;stroke:none;stroke-width:2;stroke-linecap:round;stroke-linejoin:round;stroke-miterlimit:4;stroke-dasharray:none;stroke-dashoffset:2.33072615;stroke-opacity:1" />
        <path
           inkscape:connector-curvature="0"
           id="path18030"
           d="m 650.91647,672.666 -1.1e-4,0.21083 -3.62371,3.97309 -3.66102,-4.02713 -10e-4,-0.22284 3.66665,4.03342 3.61941,-3.96737 z m -0.002,0.64036 1.2e-4,0.20688 -3.64716,3.99956 -3.63673,-4.00183 -0.001,-0.22285 3.64419,4.00824 3.64059,-3.99001 z m 1.6e-4,0.60668 -10e-5,0.21084 -3.66823,4.02021 -3.61799,-3.98085 6.9e-4,-0.22075 3.62171,3.98505 3.66392,-4.0145 z m -0.002,0.57472 0,0.20886 -3.70028,4.05811 -3.58445,-3.94308 8e-4,-0.22272 3.58807,3.94925 3.69586,-4.05042 z m 3.4e-4,0.63851 1.2e-4,0.20688 -3.72565,4.08447 -3.56007,-3.91778 -0.001,-0.22087 3.56775,3.92222 3.71919,-4.07492 z m -0.002,0.60655 -1.1e-4,0.21084 -3.74479,4.10525 -3.53952,-3.89472 -10e-4,-0.22283 3.54516,3.901 3.74049,-4.09954 z m 2.8e-4,0.67432 -1.1e-4,0.21083 -3.69156,4.0467 -3.59383,-3.95358 -0.001,-0.22285 3.59946,3.95988 3.68726,-4.04098 z m -0.002,0.63839 0,0.20885 -3.71511,4.07316 -3.56933,-3.92827 -10e-4,-0.22285 3.577,3.93469 3.70867,-4.06558 z m 5e-5,0.60865 10e-4,0.15125 -0.003,0.0575 -3.7363,4.0958 -3.5508,-3.9073 6.9e-4,-0.22075 3.55453,3.9115 3.73177,-4.08811 z m -0.002,0.64236 -1.1e-4,0.21083 -3.72146,4.08076 -3.56391,-3.92 8e-4,-0.22274 3.56752,3.92619 3.71716,-4.07504 z m 3.4e-4,0.63851 10e-6,0.20885 -3.74684,4.10712 -3.53962,-3.89471 6.9e-4,-0.22075 3.54528,3.89902 3.74048,-4.09953 z m -0.002,0.60656 -1.1e-4,0.21083 -3.76609,4.12986 -3.51897,-3.87163 8e-4,-0.22273 3.52269,3.87781 3.76178,-4.12413 z m 4.6e-4,0.63653 -1.1e-4,0.21083 -3.7192,4.07691 -3.56583,-3.92211 -10e-4,-0.22482 3.57135,3.93038 3.7149,-4.07119 z m -0.002,0.63839 10e-6,0.20885 -3.74275,4.10338 -3.54325,-3.89891 6.9e-4,-0.22075 3.54901,3.90323 3.73629,-4.0958 z m 1.7e-4,0.60667 -1.1e-4,0.21084 -3.76393,4.126 -3.5228,-3.87582 6.9e-4,-0.22075 3.52653,3.88002 3.75952,-4.1203 z m -10e-4,0.66231 -1.1e-4,0.21083 -3.73425,4.09392 -3.55082,-3.90531 -0.001,-0.22483 3.55634,3.91359 3.72985,-4.08821 z m 3.4e-4,0.6385 1e-5,0.20886 -3.75962,4.12028 -3.52653,-3.88002 -10e-4,-0.22285 3.534,3.88643 3.75317,-4.11271 z"
           style="opacity:0.2;fill:#ffffff;fill-opacity:1;fill-rule:nonzero;stroke:none;stroke-width:2;stroke-linecap:round;stroke-linejoin:round;stroke-miterlimit:4;stroke-dasharray:none;stroke-dashoffset:2.33072615;stroke-opacity:1" />
        <path
           inkscape:connector-curvature="0"
           id="path18032"
           d="m 647.29935,670.29262 c 0.55148,0.01 0.99155,0.46313 0.98334,1.01466 l -0.1018,231.14871 c 0.0171,1.35231 -2.02047,1.35029 -1.99999,-0.002 l 0.1018,-231.1487 c -0.009,-0.56376 0.45293,-1.02201 1.01665,-1.01265 z"
           style="color:#000000;font-style:normal;font-variant:normal;font-weight:normal;font-stretch:normal;font-size:medium;line-height:normal;font-family:sans-serif;text-indent:0;text-align:start;text-decoration:none;text-decoration-line:none;text-decoration-style:solid;text-decoration-color:#000000;letter-spacing:normal;word-spacing:normal;text-transform:none;direction:ltr;block-progression:tb;writing-mode:lr-tb;baseline-shift:baseline;text-anchor:start;white-space:normal;clip-rule:nonzero;display:inline;overflow:visible;visibility:visible;opacity:1;isolation:auto;mix-blend-mode:normal;color-interpolation:sRGB;color-interpolation-filters:linearRGB;solid-color:#000000;solid-opacity:1;fill:#361600;fill-opacity:1;fill-rule:evenodd;stroke:#000000;stroke-width:0.20333301;stroke-linecap:round;stroke-linejoin:round;stroke-miterlimit:4;stroke-dasharray:none;stroke-dashoffset:0;stroke-opacity:1;color-rendering:auto;image-rendering:auto;shape-rendering:auto;text-rendering:auto;enable-background:accumulate"
           sodipodi:nodetypes="cccccc" />
        <ellipse
           transform="matrix(-0.99829459,-0.05837726,-0.05837726,0.99829459,0,0)"
           ry="0.69605106"
           rx="0.82978618"
           cy="632.21747"
           cx="-685.37012"
           id="ellipse18034"
           style="opacity:0.475;fill:#000000;fill-opacity:1;stroke:none;stroke-width:3;stroke-linecap:round;stroke-linejoin:round;stroke-miterlimit:4;stroke-dasharray:none;stroke-opacity:1" />
        <ellipse
           transform="matrix(-0.99829459,-0.05837726,-0.05837726,0.99829459,0,0)"
           style="opacity:0.09100001;fill:#000000;fill-opacity:1;stroke:none;stroke-width:3;stroke-linecap:round;stroke-linejoin:round;stroke-miterlimit:4;stroke-dasharray:none;stroke-opacity:1"
           id="ellipse18036"
           cx="-685.37012"
           cy="632.15564"
           rx="0.57604867"
           ry="0.41796741" />
        <path
           sodipodi:nodetypes="ccccccc"
           inkscape:connector-curvature="0"
           id="path18038"
           d="m 646.28257,671.60138 c 0.19548,0.29164 0.5561,0.48321 0.95492,0.50736 l 0.0102,5.9e-4 -0.1011,231.35477 c -0.49236,-0.0163 -0.97344,-0.34914 -0.96336,-1.0091 l 0.10162,-230.85349 z"
           style="color:#000000;font-style:normal;font-variant:normal;font-weight:normal;font-stretch:normal;font-size:medium;line-height:normal;font-family:sans-serif;text-indent:0;text-align:start;text-decoration:none;text-decoration-line:none;text-decoration-style:solid;text-decoration-color:#000000;letter-spacing:normal;word-spacing:normal;text-transform:none;direction:ltr;block-progression:tb;writing-mode:lr-tb;baseline-shift:baseline;text-anchor:start;white-space:normal;clip-rule:nonzero;display:inline;overflow:visible;visibility:visible;opacity:0.25700001;isolation:auto;mix-blend-mode:normal;color-interpolation:sRGB;color-interpolation-filters:linearRGB;solid-color:#000000;solid-opacity:1;fill:#000000;fill-opacity:1;fill-rule:evenodd;stroke:none;stroke-width:2;stroke-linecap:round;stroke-linejoin:round;stroke-miterlimit:4;stroke-dasharray:none;stroke-dashoffset:0;stroke-opacity:1;color-rendering:auto;image-rendering:auto;shape-rendering:auto;text-rendering:auto;enable-background:accumulate" />
        <path
           style="opacity:1;fill:#666666;fill-opacity:1;stroke:#000000;stroke-width:0.20333301;stroke-linecap:round;stroke-linejoin:round;stroke-miterlimit:4;stroke-dasharray:none;stroke-opacity:1"
           d="m 649.68075,904.97771 c 0,1.9271 -2.02433,14.4214 -2.4162,14.4214 -0.39177,3e-5 -2.41604,-12.49434 -2.41604,-14.42142 1.08982,-0.75475 0.85763,-1.11281 0.85764,-2.49021 4e-5,-2.39042 0.64708,-1.37864 1.47009,-1.37868 0.90675,-7e-5 1.50313,-0.96562 1.50324,1.32959 6.8e-4,1.37599 -0.16223,1.74657 1.00127,2.53932 z"
           id="path18040"
           inkscape:connector-curvature="0"
           sodipodi:nodetypes="cscsssc" />
        <path
           style="opacity:0.23600003;fill:#000000;fill-opacity:1;stroke:none;stroke-width:0.5;stroke-linecap:round;stroke-linejoin:round;stroke-miterlimit:4;stroke-dasharray:none;stroke-opacity:1"
           d="m 646.13311,900.9021 c -0.26465,0.0458 -0.4269,0.38935 -0.42692,1.58457 -10e-6,1.37739 0.232,1.73528 -0.85782,2.49003 10e-6,1.77734 1.72049,12.52127 2.29544,14.18367 -0.70809,-5.1307 -1.47417,-12.31013 -1.40784,-13.91759 1.4891,-0.94308 1.19924,-1.43054 1.2748,-3.26047 0.0146,-0.35554 0.0406,-0.636 0.0715,-0.88562 -0.37257,-0.0333 -0.70524,-0.23686 -0.94914,-0.19459 z"
           id="path18042"
           inkscape:connector-curvature="0" />
        <path
           style="opacity:0.99299999;fill:#333333;fill-opacity:1;stroke:none;stroke-width:0.13020974;stroke-linecap:round;stroke-linejoin:round;stroke-miterlimit:4;stroke-dasharray:none;stroke-opacity:1"
           d="m 649.51669,905.04223 a 2.8673128,2.0492152 0 0 1 -2.24579,0.77839 2.8673128,2.0492152 0 0 1 -2.18027,-0.72279 2.4295552,1.8665332 0 0 0 1.85461,1.05241 c 0.008,2.76047 0.22811,12.43208 0.34949,12.4323 0.12131,1.7e-4 0.34116,-9.67867 0.34947,-12.43628 a 2.4295552,1.8665332 0 0 0 1.87249,-1.10403 z"
           id="path18044"
           inkscape:connector-curvature="0" />
      </g>
      <g
         transform="translate(-165.16513,-34.147309)"
         id="g18046">
        <path
           style="opacity:1;fill:#614d3e;fill-opacity:1;fill-rule:nonzero;stroke:none;stroke-width:2;stroke-linecap:round;stroke-linejoin:round;stroke-miterlimit:4;stroke-dasharray:none;stroke-dashoffset:2.33072615;stroke-opacity:1"
           d="m 650.91648,672.24944 -3.64661,3.99633 -3.63868,-4.00367 -0.006,5.55583 -0.006,5.55583 3.63858,4.00366 3.64672,-3.99632 0.006,-5.55583 z"
           id="path18048"
           inkscape:connector-curvature="0"
           sodipodi:nodetypes="ccccccccc" />
        <path
           style="opacity:0.2;fill:#ffffff;fill-opacity:1;fill-rule:nonzero;stroke:none;stroke-width:2;stroke-linecap:round;stroke-linejoin:round;stroke-miterlimit:4;stroke-dasharray:none;stroke-dashoffset:2.33072615;stroke-opacity:1"
           d="m 650.91647,672.666 -1.1e-4,0.21083 -3.62371,3.97309 -3.66102,-4.02713 -10e-4,-0.22284 3.66665,4.03342 3.61941,-3.96737 z m -0.002,0.64036 1.2e-4,0.20688 -3.64716,3.99956 -3.63673,-4.00183 -0.001,-0.22285 3.64419,4.00824 3.64059,-3.99001 z m 1.6e-4,0.60668 -10e-5,0.21084 -3.66823,4.02021 -3.61799,-3.98085 6.9e-4,-0.22075 3.62171,3.98505 3.66392,-4.0145 z m -0.002,0.57472 0,0.20886 -3.70028,4.05811 -3.58445,-3.94308 8e-4,-0.22272 3.58807,3.94925 3.69586,-4.05042 z m 3.4e-4,0.63851 1.2e-4,0.20688 -3.72565,4.08447 -3.56007,-3.91778 -0.001,-0.22087 3.56775,3.92222 3.71919,-4.07492 z m -0.002,0.60655 -1.1e-4,0.21084 -3.74479,4.10525 -3.53952,-3.89472 -10e-4,-0.22283 3.54516,3.901 3.74049,-4.09954 z m 2.8e-4,0.67432 -1.1e-4,0.21083 -3.69156,4.0467 -3.59383,-3.95358 -0.001,-0.22285 3.59946,3.95988 3.68726,-4.04098 z m -0.002,0.63839 0,0.20885 -3.71511,4.07316 -3.56933,-3.92827 -10e-4,-0.22285 3.577,3.93469 3.70867,-4.06558 z m 5e-5,0.60865 10e-4,0.15125 -0.003,0.0575 -3.7363,4.0958 -3.5508,-3.9073 6.9e-4,-0.22075 3.55453,3.9115 3.73177,-4.08811 z m -0.002,0.64236 -1.1e-4,0.21083 -3.72146,4.08076 -3.56391,-3.92 8e-4,-0.22274 3.56752,3.92619 3.71716,-4.07504 z m 3.4e-4,0.63851 10e-6,0.20885 -3.74684,4.10712 -3.53962,-3.89471 6.9e-4,-0.22075 3.54528,3.89902 3.74048,-4.09953 z m -0.002,0.60656 -1.1e-4,0.21083 -3.76609,4.12986 -3.51897,-3.87163 8e-4,-0.22273 3.52269,3.87781 3.76178,-4.12413 z m 4.6e-4,0.63653 -1.1e-4,0.21083 -3.7192,4.07691 -3.56583,-3.92211 -10e-4,-0.22482 3.57135,3.93038 3.7149,-4.07119 z m -0.002,0.63839 10e-6,0.20885 -3.74275,4.10338 -3.54325,-3.89891 6.9e-4,-0.22075 3.54901,3.90323 3.73629,-4.0958 z m 1.7e-4,0.60667 -1.1e-4,0.21084 -3.76393,4.126 -3.5228,-3.87582 6.9e-4,-0.22075 3.52653,3.88002 3.75952,-4.1203 z m -10e-4,0.66231 -1.1e-4,0.21083 -3.73425,4.09392 -3.55082,-3.90531 -0.001,-0.22483 3.55634,3.91359 3.72985,-4.08821 z m 3.4e-4,0.6385 1e-5,0.20886 -3.75962,4.12028 -3.52653,-3.88002 -10e-4,-0.22285 3.534,3.88643 3.75317,-4.11271 z"
           id="path18050"
           inkscape:connector-curvature="0" />
        <path
           sodipodi:nodetypes="cccccc"
           style="color:#000000;font-style:normal;font-variant:normal;font-weight:normal;font-stretch:normal;font-size:medium;line-height:normal;font-family:sans-serif;text-indent:0;text-align:start;text-decoration:none;text-decoration-line:none;text-decoration-style:solid;text-decoration-color:#000000;letter-spacing:normal;word-spacing:normal;text-transform:none;direction:ltr;block-progression:tb;writing-mode:lr-tb;baseline-shift:baseline;text-anchor:start;white-space:normal;clip-rule:nonzero;display:inline;overflow:visible;visibility:visible;opacity:1;isolation:auto;mix-blend-mode:normal;color-interpolation:sRGB;color-interpolation-filters:linearRGB;solid-color:#000000;solid-opacity:1;fill:#361600;fill-opacity:1;fill-rule:evenodd;stroke:#000000;stroke-width:0.20333301;stroke-linecap:round;stroke-linejoin:round;stroke-miterlimit:4;stroke-dasharray:none;stroke-dashoffset:0;stroke-opacity:1;color-rendering:auto;image-rendering:auto;shape-rendering:auto;text-rendering:auto;enable-background:accumulate"
           d="m 647.29935,670.29262 c 0.55148,0.01 0.99155,0.46313 0.98334,1.01466 l -0.1018,231.14871 c 0.0171,1.35231 -2.02047,1.35029 -1.99999,-0.002 l 0.1018,-231.1487 c -0.009,-0.56376 0.45293,-1.02201 1.01665,-1.01265 z"
           id="path18052"
           inkscape:connector-curvature="0" />
        <ellipse
           style="opacity:0.475;fill:#000000;fill-opacity:1;stroke:none;stroke-width:3;stroke-linecap:round;stroke-linejoin:round;stroke-miterlimit:4;stroke-dasharray:none;stroke-opacity:1"
           id="ellipse18054"
           cx="-685.37012"
           cy="632.21747"
           rx="0.82978618"
           ry="0.69605106"
           transform="matrix(-0.99829459,-0.05837726,-0.05837726,0.99829459,0,0)" />
        <ellipse
           ry="0.41796741"
           rx="0.57604867"
           cy="632.15564"
           cx="-685.37012"
           id="ellipse18056"
           style="opacity:0.09100001;fill:#000000;fill-opacity:1;stroke:none;stroke-width:3;stroke-linecap:round;stroke-linejoin:round;stroke-miterlimit:4;stroke-dasharray:none;stroke-opacity:1"
           transform="matrix(-0.99829459,-0.05837726,-0.05837726,0.99829459,0,0)" />
        <path
           style="color:#000000;font-style:normal;font-variant:normal;font-weight:normal;font-stretch:normal;font-size:medium;line-height:normal;font-family:sans-serif;text-indent:0;text-align:start;text-decoration:none;text-decoration-line:none;text-decoration-style:solid;text-decoration-color:#000000;letter-spacing:normal;word-spacing:normal;text-transform:none;direction:ltr;block-progression:tb;writing-mode:lr-tb;baseline-shift:baseline;text-anchor:start;white-space:normal;clip-rule:nonzero;display:inline;overflow:visible;visibility:visible;opacity:0.25700001;isolation:auto;mix-blend-mode:normal;color-interpolation:sRGB;color-interpolation-filters:linearRGB;solid-color:#000000;solid-opacity:1;fill:#000000;fill-opacity:1;fill-rule:evenodd;stroke:none;stroke-width:2;stroke-linecap:round;stroke-linejoin:round;stroke-miterlimit:4;stroke-dasharray:none;stroke-dashoffset:0;stroke-opacity:1;color-rendering:auto;image-rendering:auto;shape-rendering:auto;text-rendering:auto;enable-background:accumulate"
           d="m 646.28257,671.60138 c 0.19548,0.29164 0.5561,0.48321 0.95492,0.50736 l 0.0102,5.9e-4 -0.1011,231.35477 c -0.49236,-0.0163 -0.97344,-0.34914 -0.96336,-1.0091 l 0.10162,-230.85349 z"
           id="path18058"
           inkscape:connector-curvature="0"
           sodipodi:nodetypes="ccccccc" />
        <path
           sodipodi:nodetypes="cscsssc"
           inkscape:connector-curvature="0"
           id="path18060"
           d="m 649.68075,904.97771 c 0,1.9271 -2.02433,14.4214 -2.4162,14.4214 -0.39177,3e-5 -2.41604,-12.49434 -2.41604,-14.42142 1.08982,-0.75475 0.85763,-1.11281 0.85764,-2.49021 4e-5,-2.39042 0.64708,-1.37864 1.47009,-1.37868 0.90675,-7e-5 1.50313,-0.96562 1.50324,1.32959 6.8e-4,1.37599 -0.16223,1.74657 1.00127,2.53932 z"
           style="opacity:1;fill:#666666;fill-opacity:1;stroke:#000000;stroke-width:0.20333301;stroke-linecap:round;stroke-linejoin:round;stroke-miterlimit:4;stroke-dasharray:none;stroke-opacity:1" />
        <path
           inkscape:connector-curvature="0"
           id="path18062"
           d="m 646.13311,900.9021 c -0.26465,0.0458 -0.4269,0.38935 -0.42692,1.58457 -10e-6,1.37739 0.232,1.73528 -0.85782,2.49003 10e-6,1.77734 1.72049,12.52127 2.29544,14.18367 -0.70809,-5.1307 -1.47417,-12.31013 -1.40784,-13.91759 1.4891,-0.94308 1.19924,-1.43054 1.2748,-3.26047 0.0146,-0.35554 0.0406,-0.636 0.0715,-0.88562 -0.37257,-0.0333 -0.70524,-0.23686 -0.94914,-0.19459 z"
           style="opacity:0.23600003;fill:#000000;fill-opacity:1;stroke:none;stroke-width:0.5;stroke-linecap:round;stroke-linejoin:round;stroke-miterlimit:4;stroke-dasharray:none;stroke-opacity:1" />
        <path
           inkscape:connector-curvature="0"
           id="path18064"
           d="m 649.51669,905.04223 a 2.8673128,2.0492152 0 0 1 -2.24579,0.77839 2.8673128,2.0492152 0 0 1 -2.18027,-0.72279 2.4295552,1.8665332 0 0 0 1.85461,1.05241 c 0.008,2.76047 0.22811,12.43208 0.34949,12.4323 0.12131,1.7e-4 0.34116,-9.67867 0.34947,-12.43628 a 2.4295552,1.8665332 0 0 0 1.87249,-1.10403 z"
           style="opacity:0.99299999;fill:#333333;fill-opacity:1;stroke:none;stroke-width:0.13020974;stroke-linecap:round;stroke-linejoin:round;stroke-miterlimit:4;stroke-dasharray:none;stroke-opacity:1" />
      </g>
      <g
         id="g18066"
         transform="translate(-161.81208,-10.783361)">
        <path
           sodipodi:nodetypes="ccccccccc"
           inkscape:connector-curvature="0"
           id="path18068"
           d="m 650.91648,672.24944 -3.64661,3.99633 -3.63868,-4.00367 -0.006,5.55583 -0.006,5.55583 3.63858,4.00366 3.64672,-3.99632 0.006,-5.55583 z"
           style="opacity:1;fill:#614d3e;fill-opacity:1;fill-rule:nonzero;stroke:none;stroke-width:2;stroke-linecap:round;stroke-linejoin:round;stroke-miterlimit:4;stroke-dasharray:none;stroke-dashoffset:2.33072615;stroke-opacity:1" />
        <path
           inkscape:connector-curvature="0"
           id="path18070"
           d="m 650.91647,672.666 -1.1e-4,0.21083 -3.62371,3.97309 -3.66102,-4.02713 -10e-4,-0.22284 3.66665,4.03342 3.61941,-3.96737 z m -0.002,0.64036 1.2e-4,0.20688 -3.64716,3.99956 -3.63673,-4.00183 -0.001,-0.22285 3.64419,4.00824 3.64059,-3.99001 z m 1.6e-4,0.60668 -10e-5,0.21084 -3.66823,4.02021 -3.61799,-3.98085 6.9e-4,-0.22075 3.62171,3.98505 3.66392,-4.0145 z m -0.002,0.57472 0,0.20886 -3.70028,4.05811 -3.58445,-3.94308 8e-4,-0.22272 3.58807,3.94925 3.69586,-4.05042 z m 3.4e-4,0.63851 1.2e-4,0.20688 -3.72565,4.08447 -3.56007,-3.91778 -0.001,-0.22087 3.56775,3.92222 3.71919,-4.07492 z m -0.002,0.60655 -1.1e-4,0.21084 -3.74479,4.10525 -3.53952,-3.89472 -10e-4,-0.22283 3.54516,3.901 3.74049,-4.09954 z m 2.8e-4,0.67432 -1.1e-4,0.21083 -3.69156,4.0467 -3.59383,-3.95358 -0.001,-0.22285 3.59946,3.95988 3.68726,-4.04098 z m -0.002,0.63839 0,0.20885 -3.71511,4.07316 -3.56933,-3.92827 -10e-4,-0.22285 3.577,3.93469 3.70867,-4.06558 z m 5e-5,0.60865 10e-4,0.15125 -0.003,0.0575 -3.7363,4.0958 -3.5508,-3.9073 6.9e-4,-0.22075 3.55453,3.9115 3.73177,-4.08811 z m -0.002,0.64236 -1.1e-4,0.21083 -3.72146,4.08076 -3.56391,-3.92 8e-4,-0.22274 3.56752,3.92619 3.71716,-4.07504 z m 3.4e-4,0.63851 10e-6,0.20885 -3.74684,4.10712 -3.53962,-3.89471 6.9e-4,-0.22075 3.54528,3.89902 3.74048,-4.09953 z m -0.002,0.60656 -1.1e-4,0.21083 -3.76609,4.12986 -3.51897,-3.87163 8e-4,-0.22273 3.52269,3.87781 3.76178,-4.12413 z m 4.6e-4,0.63653 -1.1e-4,0.21083 -3.7192,4.07691 -3.56583,-3.92211 -10e-4,-0.22482 3.57135,3.93038 3.7149,-4.07119 z m -0.002,0.63839 10e-6,0.20885 -3.74275,4.10338 -3.54325,-3.89891 6.9e-4,-0.22075 3.54901,3.90323 3.73629,-4.0958 z m 1.7e-4,0.60667 -1.1e-4,0.21084 -3.76393,4.126 -3.5228,-3.87582 6.9e-4,-0.22075 3.52653,3.88002 3.75952,-4.1203 z m -10e-4,0.66231 -1.1e-4,0.21083 -3.73425,4.09392 -3.55082,-3.90531 -0.001,-0.22483 3.55634,3.91359 3.72985,-4.08821 z m 3.4e-4,0.6385 1e-5,0.20886 -3.75962,4.12028 -3.52653,-3.88002 -10e-4,-0.22285 3.534,3.88643 3.75317,-4.11271 z"
           style="opacity:0.2;fill:#ffffff;fill-opacity:1;fill-rule:nonzero;stroke:none;stroke-width:2;stroke-linecap:round;stroke-linejoin:round;stroke-miterlimit:4;stroke-dasharray:none;stroke-dashoffset:2.33072615;stroke-opacity:1" />
        <path
           inkscape:connector-curvature="0"
           id="path18072"
           d="m 647.29935,670.29262 c 0.55148,0.01 0.99155,0.46313 0.98334,1.01466 l -0.1018,231.14871 c 0.0171,1.35231 -2.02047,1.35029 -1.99999,-0.002 l 0.1018,-231.1487 c -0.009,-0.56376 0.45293,-1.02201 1.01665,-1.01265 z"
           style="color:#000000;font-style:normal;font-variant:normal;font-weight:normal;font-stretch:normal;font-size:medium;line-height:normal;font-family:sans-serif;text-indent:0;text-align:start;text-decoration:none;text-decoration-line:none;text-decoration-style:solid;text-decoration-color:#000000;letter-spacing:normal;word-spacing:normal;text-transform:none;direction:ltr;block-progression:tb;writing-mode:lr-tb;baseline-shift:baseline;text-anchor:start;white-space:normal;clip-rule:nonzero;display:inline;overflow:visible;visibility:visible;opacity:1;isolation:auto;mix-blend-mode:normal;color-interpolation:sRGB;color-interpolation-filters:linearRGB;solid-color:#000000;solid-opacity:1;fill:#361600;fill-opacity:1;fill-rule:evenodd;stroke:#000000;stroke-width:0.20333301;stroke-linecap:round;stroke-linejoin:round;stroke-miterlimit:4;stroke-dasharray:none;stroke-dashoffset:0;stroke-opacity:1;color-rendering:auto;image-rendering:auto;shape-rendering:auto;text-rendering:auto;enable-background:accumulate"
           sodipodi:nodetypes="cccccc" />
        <ellipse
           transform="matrix(-0.99829459,-0.05837726,-0.05837726,0.99829459,0,0)"
           ry="0.69605106"
           rx="0.82978618"
           cy="632.21747"
           cx="-685.37012"
           id="ellipse18074"
           style="opacity:0.475;fill:#000000;fill-opacity:1;stroke:none;stroke-width:3;stroke-linecap:round;stroke-linejoin:round;stroke-miterlimit:4;stroke-dasharray:none;stroke-opacity:1" />
        <ellipse
           transform="matrix(-0.99829459,-0.05837726,-0.05837726,0.99829459,0,0)"
           style="opacity:0.09100001;fill:#000000;fill-opacity:1;stroke:none;stroke-width:3;stroke-linecap:round;stroke-linejoin:round;stroke-miterlimit:4;stroke-dasharray:none;stroke-opacity:1"
           id="ellipse18076"
           cx="-685.37012"
           cy="632.15564"
           rx="0.57604867"
           ry="0.41796741" />
        <path
           sodipodi:nodetypes="ccccccc"
           inkscape:connector-curvature="0"
           id="path18078"
           d="m 646.28257,671.60138 c 0.19548,0.29164 0.5561,0.48321 0.95492,0.50736 l 0.0102,5.9e-4 -0.1011,231.35477 c -0.49236,-0.0163 -0.97344,-0.34914 -0.96336,-1.0091 l 0.10162,-230.85349 z"
           style="color:#000000;font-style:normal;font-variant:normal;font-weight:normal;font-stretch:normal;font-size:medium;line-height:normal;font-family:sans-serif;text-indent:0;text-align:start;text-decoration:none;text-decoration-line:none;text-decoration-style:solid;text-decoration-color:#000000;letter-spacing:normal;word-spacing:normal;text-transform:none;direction:ltr;block-progression:tb;writing-mode:lr-tb;baseline-shift:baseline;text-anchor:start;white-space:normal;clip-rule:nonzero;display:inline;overflow:visible;visibility:visible;opacity:0.25700001;isolation:auto;mix-blend-mode:normal;color-interpolation:sRGB;color-interpolation-filters:linearRGB;solid-color:#000000;solid-opacity:1;fill:#000000;fill-opacity:1;fill-rule:evenodd;stroke:none;stroke-width:2;stroke-linecap:round;stroke-linejoin:round;stroke-miterlimit:4;stroke-dasharray:none;stroke-dashoffset:0;stroke-opacity:1;color-rendering:auto;image-rendering:auto;shape-rendering:auto;text-rendering:auto;enable-background:accumulate" />
        <path
           style="opacity:1;fill:#666666;fill-opacity:1;stroke:#000000;stroke-width:0.20333301;stroke-linecap:round;stroke-linejoin:round;stroke-miterlimit:4;stroke-dasharray:none;stroke-opacity:1"
           d="m 649.68075,904.97771 c 0,1.9271 -2.02433,14.4214 -2.4162,14.4214 -0.39177,3e-5 -2.41604,-12.49434 -2.41604,-14.42142 1.08982,-0.75475 0.85763,-1.11281 0.85764,-2.49021 4e-5,-2.39042 0.64708,-1.37864 1.47009,-1.37868 0.90675,-7e-5 1.50313,-0.96562 1.50324,1.32959 6.8e-4,1.37599 -0.16223,1.74657 1.00127,2.53932 z"
           id="path18080"
           inkscape:connector-curvature="0"
           sodipodi:nodetypes="cscsssc" />
        <path
           style="opacity:0.23600003;fill:#000000;fill-opacity:1;stroke:none;stroke-width:0.5;stroke-linecap:round;stroke-linejoin:round;stroke-miterlimit:4;stroke-dasharray:none;stroke-opacity:1"
           d="m 646.13311,900.9021 c -0.26465,0.0458 -0.4269,0.38935 -0.42692,1.58457 -10e-6,1.37739 0.232,1.73528 -0.85782,2.49003 10e-6,1.77734 1.72049,12.52127 2.29544,14.18367 -0.70809,-5.1307 -1.47417,-12.31013 -1.40784,-13.91759 1.4891,-0.94308 1.19924,-1.43054 1.2748,-3.26047 0.0146,-0.35554 0.0406,-0.636 0.0715,-0.88562 -0.37257,-0.0333 -0.70524,-0.23686 -0.94914,-0.19459 z"
           id="path18082"
           inkscape:connector-curvature="0" />
        <path
           style="opacity:0.99299999;fill:#333333;fill-opacity:1;stroke:none;stroke-width:0.13020974;stroke-linecap:round;stroke-linejoin:round;stroke-miterlimit:4;stroke-dasharray:none;stroke-opacity:1"
           d="m 649.51669,905.04223 a 2.8673128,2.0492152 0 0 1 -2.24579,0.77839 2.8673128,2.0492152 0 0 1 -2.18027,-0.72279 2.4295552,1.8665332 0 0 0 1.85461,1.05241 c 0.008,2.76047 0.22811,12.43208 0.34949,12.4323 0.12131,1.7e-4 0.34116,-9.67867 0.34947,-12.43628 a 2.4295552,1.8665332 0 0 0 1.87249,-1.10403 z"
           id="path18084"
           inkscape:connector-curvature="0" />
      </g>
      <path
         style="opacity:1;fill:#502d16;fill-opacity:1;fill-rule:nonzero;stroke:#000000;stroke-width:1.8766762;stroke-linecap:round;stroke-linejoin:round;stroke-miterlimit:4;stroke-dasharray:none;stroke-dashoffset:2.33072615;stroke-opacity:1"
         d="m 489.68497,708.77889 c -8.44708,4.26832 -15.85002,0.983 -20.77461,-0.021 -2.19779,-0.44804 -2.08606,1.8039 -2.05283,4.04663 l 2.80898,189.49185 c 0.0252,1.7017 2.71074,8.59725 4.06289,9.07612 3.57469,1.26592 7.15138,0.71789 10.72806,0.0108 1.40734,-0.2782 4.05244,-7.36627 4.08112,-9.0679 l 3.19101,-189.48581 c 0.038,-2.24264 -0.0428,-5.06233 -2.04462,-4.05074 z"
         id="path17880"
         inkscape:connector-curvature="0"
         sodipodi:nodetypes="sssssssss" />
      <path
         sodipodi:nodetypes="ccccccccc"
         inkscape:connector-curvature="0"
         style="opacity:0.25;fill:#000000;fill-rule:evenodd;stroke:#000000;stroke-width:1px;stroke-linecap:butt;stroke-linejoin:miter;stroke-opacity:1"
         d="m 468.52398,708.70524 c 0.11999,0.007 0.24936,0.0251 0.38676,0.0531 1.75907,0.35862 3.84607,1.00196 6.17228,1.49451 l -0.20305,201.45692 c -0.38384,-0.0961 -0.76646,-0.20122 -1.15008,-0.33709 -1.35215,-0.47887 -4.03486,-7.37472 -4.06317,-9.07637 L 466.8577,712.80512 c -0.0348,-2.10249 -0.13266,-4.21344 1.66628,-4.09989 z"
         id="path17882" />
      <path
         sodipodi:nodetypes="ccccccccccccccccccccccccccccccccccccccccccccccc"
         style="opacity:1;fill:#481d00;fill-opacity:1;fill-rule:nonzero;stroke:#000000;stroke-width:2;stroke-linecap:round;stroke-linejoin:round;stroke-miterlimit:4;stroke-dasharray:none;stroke-dashoffset:2.33072615;stroke-opacity:1"
         d="m 465.8741,717.22335 c 8.77393,1.82222 17.55503,3.12431 26.8258,0.27315 l -0.16307,8.72249 c -8.92832,2.47532 -17.75827,1.99346 -26.51724,-0.26697 z m 26.48835,12.10441 -0.0846,4.54289 -25.63589,14.62846 -0.0735,-4.45124 25.79411,-14.72012 z m -0.5636,30.14593 -0.0845,4.54093 -24.57862,14.02602 -0.0755,-4.45126 24.73882,-14.11569 z m -0.54499,29.14595 -0.0845,4.54094 -23.55653,13.4411 -0.0756,-4.4493 23.71675,-13.53274 z m -0.65898,60.31035 -0.0846,4.54093 c -6.99743,5.70279 -14.48519,10.01633 -22.49925,12.83865 l -0.0755,-4.44929 c 8.045,-3.20354 15.94988,-6.72234 22.65958,-12.9303 z m -22.42933,26.67271 c 7.38303,1.14436 14.71352,1.5007 21.92767,0.11191 l -0.0719,3.90031 c -7.26365,1.44918 -14.5273,1.49055 -21.79095,-0.10986 l -0.064,-3.9024 z m 0.16756,10.10369 c 7.19104,1.55941 14.38191,2.25055 21.57211,0.10764 l -0.0739,3.90032 c -7.14553,2.05904 -14.2859,1.89926 -21.43147,-0.1075 l -0.0661,-3.90046 z m 0.1659,9.84783 c 7.24657,1.96237 14.31291,1.87174 21.22062,0.10729 l -0.0719,3.90228 c -7.02797,1.39826 -14.05595,1.54423 -21.08392,-0.10527 l -0.0641,-3.90435 z"
         id="path17884"
         inkscape:connector-curvature="0" />
      <path
         sodipodi:nodetypes="cccccccccccccccccccccccc"
         style="opacity:1;fill:#481d00;fill-opacity:1;fill-rule:nonzero;stroke:#000000;stroke-width:2;stroke-linecap:round;stroke-linejoin:round;stroke-miterlimit:4;stroke-dasharray:none;stroke-dashoffset:2.33072615;stroke-opacity:1"
         d="m 466.31774,729.12378 c 8.19438,5.68441 15.68409,12.71943 25.77228,14.77404 l -0.0825,4.45108 c -10.23387,-2.56293 -18.04846,-8.45238 -25.61417,-14.68402 l -0.0754,-4.5411 z m 0.50478,30.14505 24.71617,14.16945 -0.0845,4.45109 -24.55616,-14.07944 -0.0753,-4.54109 z m 0.4863,29.147 c 7.86809,6.05887 15.60783,12.61232 23.69531,13.58248 l -0.0845,4.45109 c -10.03987,-2.81982 -17.29937,-8.09426 -23.53528,-13.49249 l -0.0754,-4.54108 z m 0.40728,60.3114 c 7.08021,5.22627 9.73344,9.42158 22.63928,12.97987 l -0.0825,4.44914 c -9.68145,-1.89791 -17.63395,-7.31361 -22.48117,-12.88792 l -0.0754,-4.54109 z"
         id="path17886"
         inkscape:connector-curvature="0" />
      <path
         sodipodi:nodetypes="ccccccccccccccccccccccccccccccccccccccccccccccccccccccccccc"
         inkscape:connector-curvature="0"
         style="opacity:0.25;fill:#000000;fill-opacity:1;fill-rule:nonzero;stroke:none;stroke-width:2;stroke-linecap:round;stroke-linejoin:round;stroke-miterlimit:4;stroke-dasharray:none;stroke-dashoffset:2.33072615;stroke-opacity:1"
         d="m 465.87476,717.22406 12.54691,1.58726 -0.009,8.40885 -12.39258,-1.26745 z m 0.44374,11.90042 12.02232,8.35249 -0.006,4.35104 -11.69223,6.67181 -0.0736,-4.45125 8.0999,-4.4942 -8.27497,-5.88879 -0.0754,-4.5411 z m 0.50478,30.14505 11.48743,6.58581 -0.006,5.81249 -11.16852,6.37352 -0.0755,-4.45125 8.46758,-4.83132 -8.62966,-4.94815 -0.0754,-4.5411 z m 0.4862,29.147 10.88234,8.17745 0.0839,3.9254 -10.66229,6.08301 -0.0755,-4.4493 7.15282,-4.18331 -7.30567,-5.01217 -0.0754,-4.54109 z m 0.40738,60.31141 10.43921,7.25597 0.31171,5.30222 -10.45641,5.02415 -0.0755,-4.44931 6.86789,-2.84653 -7.01157,-5.7454 -0.0754,-4.5411 z m 0.44945,26.87547 9.90518,0.87704 -0.004,3.90039 -9.83668,-0.87514 -0.0641,-3.90241 z m 0.16756,10.10369 9.98156,0.93858 -0.004,3.90039 -9.91134,-0.93848 -0.066,-3.90045 z m 0.1659,9.84782 9.93286,1.38317 -0.13109,3.45755 -9.73737,-0.93628 -0.064,-3.90437 z"
         id="path17888" />
    </g>
  </g>
  <g
     inkscape:groupmode="layer"
     id="layer6"
     inkscape:label="Flecha"
     transform="translate(-321.13869,-628.60753)"
     sodipodi:insensitive="true">
    <g
       style="display:inline"
       id="g17965"
       transform="matrix(-0.70710678,-0.70710676,0.70710678,-0.70710676,342.97004,1799.2685)">
      <path
         style="opacity:1;fill:#614d3e;fill-opacity:1;fill-rule:nonzero;stroke:none;stroke-width:2;stroke-linecap:round;stroke-linejoin:round;stroke-miterlimit:4;stroke-dasharray:none;stroke-dashoffset:2.33072615;stroke-opacity:1"
         d="m 650.91648,672.24944 -3.64661,3.99633 -3.63868,-4.00367 -0.006,5.55583 -0.006,5.55583 3.63858,4.00366 3.64672,-3.99632 0.006,-5.55583 z"
         id="path17968"
         inkscape:connector-curvature="0"
         sodipodi:nodetypes="ccccccccc" />
      <path
         style="opacity:0.2;fill:#ffffff;fill-opacity:1;fill-rule:nonzero;stroke:none;stroke-width:2;stroke-linecap:round;stroke-linejoin:round;stroke-miterlimit:4;stroke-dasharray:none;stroke-dashoffset:2.33072615;stroke-opacity:1"
         d="m 650.91647,672.666 -1.1e-4,0.21083 -3.62371,3.97309 -3.66102,-4.02713 -10e-4,-0.22284 3.66665,4.03342 3.61941,-3.96737 z m -0.002,0.64036 1.2e-4,0.20688 -3.64716,3.99956 -3.63673,-4.00183 -0.001,-0.22285 3.64419,4.00824 3.64059,-3.99001 z m 1.6e-4,0.60668 -10e-5,0.21084 -3.66823,4.02021 -3.61799,-3.98085 6.9e-4,-0.22075 3.62171,3.98505 3.66392,-4.0145 z m -0.002,0.57472 0,0.20886 -3.70028,4.05811 -3.58445,-3.94308 8e-4,-0.22272 3.58807,3.94925 3.69586,-4.05042 z m 3.4e-4,0.63851 1.2e-4,0.20688 -3.72565,4.08447 -3.56007,-3.91778 -0.001,-0.22087 3.56775,3.92222 3.71919,-4.07492 z m -0.002,0.60655 -1.1e-4,0.21084 -3.74479,4.10525 -3.53952,-3.89472 -10e-4,-0.22283 3.54516,3.901 3.74049,-4.09954 z m 2.8e-4,0.67432 -1.1e-4,0.21083 -3.69156,4.0467 -3.59383,-3.95358 -0.001,-0.22285 3.59946,3.95988 3.68726,-4.04098 z m -0.002,0.63839 0,0.20885 -3.71511,4.07316 -3.56933,-3.92827 -10e-4,-0.22285 3.577,3.93469 3.70867,-4.06558 z m 5e-5,0.60865 10e-4,0.15125 -0.003,0.0575 -3.7363,4.0958 -3.5508,-3.9073 6.9e-4,-0.22075 3.55453,3.9115 3.73177,-4.08811 z m -0.002,0.64236 -1.1e-4,0.21083 -3.72146,4.08076 -3.56391,-3.92 8e-4,-0.22274 3.56752,3.92619 3.71716,-4.07504 z m 3.4e-4,0.63851 10e-6,0.20885 -3.74684,4.10712 -3.53962,-3.89471 6.9e-4,-0.22075 3.54528,3.89902 3.74048,-4.09953 z m -0.002,0.60656 -1.1e-4,0.21083 -3.76609,4.12986 -3.51897,-3.87163 8e-4,-0.22273 3.52269,3.87781 3.76178,-4.12413 z m 4.6e-4,0.63653 -1.1e-4,0.21083 -3.7192,4.07691 -3.56583,-3.92211 -10e-4,-0.22482 3.57135,3.93038 3.7149,-4.07119 z m -0.002,0.63839 10e-6,0.20885 -3.74275,4.10338 -3.54325,-3.89891 6.9e-4,-0.22075 3.54901,3.90323 3.73629,-4.0958 z m 1.7e-4,0.60667 -1.1e-4,0.21084 -3.76393,4.126 -3.5228,-3.87582 6.9e-4,-0.22075 3.52653,3.88002 3.75952,-4.1203 z m -10e-4,0.66231 -1.1e-4,0.21083 -3.73425,4.09392 -3.55082,-3.90531 -0.001,-0.22483 3.55634,3.91359 3.72985,-4.08821 z m 3.4e-4,0.6385 1e-5,0.20886 -3.75962,4.12028 -3.52653,-3.88002 -10e-4,-0.22285 3.534,3.88643 3.75317,-4.11271 z"
         id="path17970"
         inkscape:connector-curvature="0" />
      <path
         sodipodi:nodetypes="cccccc"
         style="color:#000000;font-style:normal;font-variant:normal;font-weight:normal;font-stretch:normal;font-size:medium;line-height:normal;font-family:sans-serif;text-indent:0;text-align:start;text-decoration:none;text-decoration-line:none;text-decoration-style:solid;text-decoration-color:#000000;letter-spacing:normal;word-spacing:normal;text-transform:none;direction:ltr;block-progression:tb;writing-mode:lr-tb;baseline-shift:baseline;text-anchor:start;white-space:normal;clip-rule:nonzero;display:inline;overflow:visible;visibility:visible;opacity:1;isolation:auto;mix-blend-mode:normal;color-interpolation:sRGB;color-interpolation-filters:linearRGB;solid-color:#000000;solid-opacity:1;fill:#361600;fill-opacity:1;fill-rule:evenodd;stroke:#000000;stroke-width:0.20333301;stroke-linecap:round;stroke-linejoin:round;stroke-miterlimit:4;stroke-dasharray:none;stroke-dashoffset:0;stroke-opacity:1;color-rendering:auto;image-rendering:auto;shape-rendering:auto;text-rendering:auto;enable-background:accumulate"
         d="m 647.29935,670.29262 c 0.55148,0.01 0.99155,0.46313 0.98334,1.01466 l -0.1018,231.14871 c 0.0171,1.35231 -2.02047,1.35029 -1.99999,-0.002 l 0.1018,-231.1487 c -0.009,-0.56376 0.45293,-1.02201 1.01665,-1.01265 z"
         id="path17972"
         inkscape:connector-curvature="0" />
      <ellipse
         style="opacity:0.475;fill:#000000;fill-opacity:1;stroke:none;stroke-width:3;stroke-linecap:round;stroke-linejoin:round;stroke-miterlimit:4;stroke-dasharray:none;stroke-opacity:1"
         id="ellipse17974"
         cx="-685.37012"
         cy="632.21747"
         rx="0.82978618"
         ry="0.69605106"
         transform="matrix(-0.99829459,-0.05837726,-0.05837726,0.99829459,0,0)" />
      <ellipse
         ry="0.41796741"
         rx="0.57604867"
         cy="632.15564"
         cx="-685.37012"
         id="ellipse17976"
         style="opacity:0.09100001;fill:#000000;fill-opacity:1;stroke:none;stroke-width:3;stroke-linecap:round;stroke-linejoin:round;stroke-miterlimit:4;stroke-dasharray:none;stroke-opacity:1"
         transform="matrix(-0.99829459,-0.05837726,-0.05837726,0.99829459,0,0)" />
      <path
         style="color:#000000;font-style:normal;font-variant:normal;font-weight:normal;font-stretch:normal;font-size:medium;line-height:normal;font-family:sans-serif;text-indent:0;text-align:start;text-decoration:none;text-decoration-line:none;text-decoration-style:solid;text-decoration-color:#000000;letter-spacing:normal;word-spacing:normal;text-transform:none;direction:ltr;block-progression:tb;writing-mode:lr-tb;baseline-shift:baseline;text-anchor:start;white-space:normal;clip-rule:nonzero;display:inline;overflow:visible;visibility:visible;opacity:0.25700001;isolation:auto;mix-blend-mode:normal;color-interpolation:sRGB;color-interpolation-filters:linearRGB;solid-color:#000000;solid-opacity:1;fill:#000000;fill-opacity:1;fill-rule:evenodd;stroke:none;stroke-width:2;stroke-linecap:round;stroke-linejoin:round;stroke-miterlimit:4;stroke-dasharray:none;stroke-dashoffset:0;stroke-opacity:1;color-rendering:auto;image-rendering:auto;shape-rendering:auto;text-rendering:auto;enable-background:accumulate"
         d="m 646.28257,671.60138 c 0.19548,0.29164 0.5561,0.48321 0.95492,0.50736 l 0.0102,5.9e-4 -0.1011,231.35477 c -0.49236,-0.0163 -0.97344,-0.34914 -0.96336,-1.0091 l 0.10162,-230.85349 z"
         id="path17978"
         inkscape:connector-curvature="0"
         sodipodi:nodetypes="ccccccc" />
      <path
         sodipodi:nodetypes="cscsssc"
         inkscape:connector-curvature="0"
         id="path17980"
         d="m 649.68075,904.97771 c 0,1.9271 -2.02433,14.4214 -2.4162,14.4214 -0.39177,3e-5 -2.41604,-12.49434 -2.41604,-14.42142 1.08982,-0.75475 0.85763,-1.11281 0.85764,-2.49021 4e-5,-2.39042 0.64708,-1.37864 1.47009,-1.37868 0.90675,-7e-5 1.50313,-0.96562 1.50324,1.32959 6.8e-4,1.37599 -0.16223,1.74657 1.00127,2.53932 z"
         style="opacity:1;fill:#666666;fill-opacity:1;stroke:#000000;stroke-width:0.20333301;stroke-linecap:round;stroke-linejoin:round;stroke-miterlimit:4;stroke-dasharray:none;stroke-opacity:1" />
      <path
         inkscape:connector-curvature="0"
         id="path17982"
         d="m 646.13311,900.9021 c -0.26465,0.0458 -0.4269,0.38935 -0.42692,1.58457 -10e-6,1.37739 0.232,1.73528 -0.85782,2.49003 10e-6,1.77734 1.72049,12.52127 2.29544,14.18367 -0.70809,-5.1307 -1.47417,-12.31013 -1.40784,-13.91759 1.4891,-0.94308 1.19924,-1.43054 1.2748,-3.26047 0.0146,-0.35554 0.0406,-0.636 0.0715,-0.88562 -0.37257,-0.0333 -0.70524,-0.23686 -0.94914,-0.19459 z"
         style="opacity:0.23600003;fill:#000000;fill-opacity:1;stroke:none;stroke-width:0.5;stroke-linecap:round;stroke-linejoin:round;stroke-miterlimit:4;stroke-dasharray:none;stroke-opacity:1" />
      <path
         inkscape:connector-curvature="0"
         id="path17984"
         d="m 649.51669,905.04223 a 2.8673128,2.0492152 0 0 1 -2.24579,0.77839 2.8673128,2.0492152 0 0 1 -2.18027,-0.72279 2.4295552,1.8665332 0 0 0 1.85461,1.05241 c 0.008,2.76047 0.22811,12.43208 0.34949,12.4323 0.12131,1.7e-4 0.34116,-9.67867 0.34947,-12.43628 a 2.4295552,1.8665332 0 0 0 1.87249,-1.10403 z"
         style="opacity:0.99299999;fill:#333333;fill-opacity:1;stroke:none;stroke-width:0.13020974;stroke-linecap:round;stroke-linejoin:round;stroke-miterlimit:4;stroke-dasharray:none;stroke-opacity:1" />
    </g>
  </g>
  <g
     inkscape:groupmode="layer"
     id="layer5"
     inkscape:label="Arco"
     transform="translate(-321.13869,-628.60753)"
     style="display:inline"
     sodipodi:insensitive="true">
    <g
       style="display:inline"
       id="g17716"
       transform="matrix(0.70710678,-0.70710676,0.7071068,0.70710678,-534.27816,842.42805)">
      <path
         inkscape:connector-curvature="0"
         id="path17712"
         d="m 734.42541,477.69357 0,346.08789 1.01758,0 0,-346.08789 -1.01758,0 z"
         style="color:#000000;font-style:normal;font-variant:normal;font-weight:normal;font-stretch:normal;font-size:medium;line-height:normal;font-family:sans-serif;text-indent:0;text-align:start;text-decoration:none;text-decoration-line:none;text-decoration-style:solid;text-decoration-color:#000000;letter-spacing:normal;word-spacing:normal;text-transform:none;direction:ltr;block-progression:tb;writing-mode:lr-tb;baseline-shift:baseline;text-anchor:start;white-space:normal;clip-rule:nonzero;display:inline;overflow:visible;visibility:visible;opacity:1;isolation:auto;mix-blend-mode:normal;color-interpolation:sRGB;color-interpolation-filters:linearRGB;solid-color:#000000;solid-opacity:1;fill:#000000;fill-opacity:1;fill-rule:evenodd;stroke:none;stroke-width:1.0166651px;stroke-linecap:butt;stroke-linejoin:miter;stroke-miterlimit:4;stroke-dasharray:none;stroke-dashoffset:0;stroke-opacity:1;color-rendering:auto;image-rendering:auto;shape-rendering:auto;text-rendering:auto;enable-background:accumulate" />
      <path
         sodipodi:nodetypes="ssssssssscssssscss"
         inkscape:connector-curvature="0"
         id="rect17410"
         d="m 743.45303,467.78296 c -3.46755,-0.30825 -9.4117,3.05077 -8.81242,9.22146 2.28322,23.50992 26.62538,30.79485 26.10565,82.08577 -0.10664,10.52492 -4.84397,25.57689 -9.55463,41.74705 -4.71065,16.17015 -5.32799,33.4585 -5.32799,48.45615 0,14.99767 0.61734,32.28601 5.32799,48.45617 4.71066,16.17016 9.44799,31.22213 9.55463,41.74704 0.51973,51.29093 -23.82243,58.57586 -26.10565,82.08578 -0.87168,8.97553 12.10296,12.00076 11.15949,6.44747 -0.49396,-2.90745 -2.74892,-6.21501 -8.19885,-6.50109 -1.42126,-10.98741 22.10209,-30.88247 26.751,-67.11777 2.89067,-22.5308 -0.96899,-39.65456 -5.55131,-55.72343 -4.58233,-16.06889 -5.82065,-31.08289 -5.82065,-49.39417 0,-18.31126 1.23832,-33.32576 5.82065,-49.39514 4.58232,-16.06938 8.44198,-33.19364 5.55131,-55.72444 -4.64891,-36.23529 -28.17226,-56.12836 -26.751,-67.11578 5.44993,-0.28608 7.70489,-3.59364 8.19885,-6.50109 0.29483,-1.7354 -0.77091,-2.63388 -2.34707,-2.77398 z"
         style="opacity:1;fill:#502d16;fill-opacity:1;stroke:#000000;stroke-width:1.03360784;stroke-linecap:round;stroke-linejoin:round;stroke-miterlimit:4;stroke-dasharray:none;stroke-opacity:1" />
      <g
         transform="translate(-13.724978,-43.716595)"
         id="g17546">
        <path
           inkscape:connector-curvature="0"
           style="opacity:1;fill:#391700;fill-opacity:1;stroke:#000000;stroke-width:0.5;stroke-linecap:round;stroke-linejoin:round;stroke-miterlimit:4;stroke-dasharray:none;stroke-opacity:1"
           d="m 831.03711,625.45898 -7.2793,0.25196 c -0.49555,2.64473 -0.91007,5.29745 -1.24609,7.94726 l 7.20312,-0.25 c 0.36782,-2.66244 0.80329,-5.30684 1.32227,-7.94922 z"
           transform="matrix(1.0166651,0,0,1.016665,-75.093431,19.117966)"
           id="rect17440" />
        <path
           inkscape:connector-curvature="0"
           style="opacity:1;fill:#2b1100;fill-opacity:1;stroke:#000000;stroke-width:0.5;stroke-linecap:round;stroke-linejoin:round;stroke-miterlimit:4;stroke-dasharray:none;stroke-opacity:1"
           d="m 821.02539,658.89844 c -0.0116,1.32498 -0.0254,2.65462 -0.0254,3.94726 0,1.29392 0.0137,2.62485 0.0254,3.95118 l 7.01172,0 C 828.02265,665.48577 828,664.19122 828,662.8457 c 0,-1.34418 0.0227,-2.63742 0.0371,-3.94726 l -7.01172,0 z"
           id="rect17428"
           transform="matrix(1.0166651,0,0,1.016665,-75.093431,19.117966)" />
        <path
           inkscape:connector-curvature="0"
           style="opacity:1;fill:#2b1100;fill-opacity:1;stroke:#000000;stroke-width:0.5;stroke-linecap:round;stroke-linejoin:round;stroke-miterlimit:4;stroke-dasharray:none;stroke-opacity:1"
           d="m 830.64844,627.53906 -7.92774,4.57813 c -0.447,3.24998 -0.7655,6.48954 -1.01367,9.70703 l 7.49219,-4.32617 c 0.37247,-3.3542 0.85373,-6.66123 1.44922,-9.95899 z"
           id="rect17438"
           transform="matrix(1.0166651,0,0,1.016665,-75.093431,19.117966)" />
        <path
           inkscape:connector-curvature="0"
           style="opacity:1;fill:#3d1800;fill-opacity:1;stroke:#000000;stroke-width:0.5;stroke-linecap:round;stroke-linejoin:round;stroke-miterlimit:4;stroke-dasharray:none;stroke-opacity:1"
           d="m 829.47266,635.21484 -7.60157,4.38868 c -0.2857,3.19126 -0.4654,6.34714 -0.59765,9.46679 l 7.2832,-4.20508 c 0.22405,-3.27168 0.51744,-6.48447 0.91602,-9.65039 z"
           id="rect17436"
           transform="matrix(1.0166651,0,0,1.016665,-75.093431,19.117966)" />
        <path
           style="opacity:1;fill:#2b1100;fill-opacity:1;stroke:#000000;stroke-width:0.5;stroke-linecap:round;stroke-linejoin:round;stroke-miterlimit:4;stroke-dasharray:none;stroke-opacity:1"
           d="m 821.69141,642.02344 c -0.20226,2.6591 -0.35586,5.29571 -0.45703,7.89844 l 7.02539,0 c 0.11849,-2.68412 0.16174,-2.3719 0.3789,-4.96094 z"
           id="rect17434"
           transform="matrix(1.0166651,0,0,1.016665,-75.093431,19.117966)"
           inkscape:connector-curvature="0"
           sodipodi:nodetypes="ccccc" />
        <path
           style="opacity:1;fill:#401900;fill-opacity:1;stroke:#000000;stroke-width:0.5;stroke-linecap:round;stroke-linejoin:round;stroke-miterlimit:4;stroke-dasharray:none;stroke-opacity:1"
           d="m 821.34375,647.52344 c -0.1312,2.67182 -0.21874,5.30717 -0.26758,7.89844 l 7.00977,0 c 0.0603,-2.69519 0.17182,-2.62912 0.31445,-5.21094 z"
           id="rect17432"
           transform="matrix(1.0166651,0,0,1.016665,-75.093431,19.117966)"
           inkscape:connector-curvature="0"
           sodipodi:nodetypes="ccccc" />
        <path
           inkscape:connector-curvature="0"
           style="opacity:1;fill:#100600;fill-opacity:1;stroke:#000000;stroke-width:0.5;stroke-linecap:round;stroke-linejoin:round;stroke-miterlimit:4;stroke-dasharray:none;stroke-opacity:1"
           d="m 828.18555,652.27539 -7.08008,1.89844 c -0.064,2.78954 -0.10117,5.5379 -0.10352,8.20312 l 7.01953,-1.8789 c 0.0178,-2.81009 0.0722,-5.54888 0.16407,-8.22266 z"
           id="rect17430"
           transform="matrix(1.0166651,0,0,1.016665,-75.093431,19.117966)" />
        <path
           inkscape:connector-curvature="0"
           style="opacity:1;fill:#4d1e00;fill-opacity:1;stroke:#000000;stroke-width:0.5;stroke-linecap:round;stroke-linejoin:round;stroke-miterlimit:4;stroke-dasharray:none;stroke-opacity:1"
           d="m 823.00391,630.12109 c -0.10492,0.68962 -0.19848,1.37876 -0.29297,2.06836 l 6.76172,3.01563 c 0.0874,-0.69399 0.18446,-1.38522 0.28125,-2.07617 l -6.75,-3.00782 z m 6.11132,8.17774 -7.5957,6.0332 c -0.0578,0.90043 -0.10836,1.79346 -0.1543,2.6875 l 7.47657,-5.93945 c 0.0832,-0.93205 0.17554,-1.85786 0.27343,-2.78125 z m -7.84179,10.77539 c -0.038,0.8969 -0.0852,1.79926 -0.11328,2.6875 l 6.88086,6.67187 c 0.0114,-0.92125 0.0176,-1.85583 0.0371,-2.76171 l -6.80468,-6.59766 z"
           id="rect17479"
           transform="matrix(1.0166651,0,0,1.016665,-75.093431,19.117966)" />
        <path
           inkscape:connector-curvature="0"
           style="opacity:1;fill:#1a0a00;fill-opacity:1;stroke:#000000;stroke-width:0.5;stroke-linecap:round;stroke-linejoin:round;stroke-miterlimit:4;stroke-dasharray:none;stroke-opacity:1"
           d="m 823.95703,624.6543 c -0.13958,0.71048 -0.27341,1.42092 -0.40039,2.13281 l 6.51172,4.20312 c 0.1122,-0.72303 0.22431,-1.44661 0.34766,-2.16796 l -6.45899,-4.16797 z m -1.86328,12.68554 c -0.0747,0.72534 -0.14971,1.45052 -0.21484,2.17383 l 6.78515,3.72852 c 0.0566,-0.73409 0.11653,-1.46547 0.18164,-2.19336 l -6.75195,-3.70899 z m -0.96289,15.72071 c -0.0246,0.91742 -0.0465,1.83025 -0.0625,2.73633 l 6.93555,6.7246 c 7.8e-4,-0.94237 0.0175,-1.84813 0.0254,-2.77343 l -6.89844,-6.6875 z m -0.12305,8.58789 c -9.2e-4,0.3952 -0.008,0.80519 -0.008,1.19726 0,0.28974 0.005,0.59331 0.006,0.88477 l 7.01953,1.91601 c -0.005,-0.69791 -0.0182,-1.38031 -0.0195,-2.08789 l -6.99805,-1.91015 z"
           id="rect17487"
           transform="matrix(1.0166651,0,0,1.016665,-75.093431,19.117966)" />
      </g>
      <g
         transform="matrix(1,0,0,-1,-13.629483,1344.3149)"
         id="g17642">
        <path
           inkscape:connector-curvature="0"
           id="path17644"
           transform="matrix(1.0166651,0,0,1.016665,-75.093431,19.117966)"
           d="m 831.03711,625.45898 -7.2793,0.25196 c -0.49555,2.64473 -0.91007,5.29745 -1.24609,7.94726 l 7.20312,-0.25 c 0.36782,-2.66244 0.80329,-5.30684 1.32227,-7.94922 z"
           style="opacity:1;fill:#391700;fill-opacity:1;stroke:#000000;stroke-width:0.5;stroke-linecap:round;stroke-linejoin:round;stroke-miterlimit:4;stroke-dasharray:none;stroke-opacity:1" />
        <path
           sodipodi:nodetypes="csccsccc"
           inkscape:connector-curvature="0"
           transform="matrix(1.0166651,0,0,1.016665,-75.093431,19.117966)"
           id="path17646"
           d="m 821.02539,658.89844 c -0.0116,1.32498 -0.0254,2.65462 -0.0254,3.94726 0,1.29392 -0.2363,4.56235 -0.2246,5.88868 l 7.13672,-3.8125 c -0.0145,-1.31111 0.0879,-0.73066 0.0879,-2.07618 0,-1.34418 0.0227,-2.63742 0.0371,-3.94726 l -7.01172,0 z"
           style="opacity:1;fill:#2b1100;fill-opacity:1;stroke:#000000;stroke-width:0.5;stroke-linecap:round;stroke-linejoin:round;stroke-miterlimit:4;stroke-dasharray:none;stroke-opacity:1" />
        <path
           inkscape:connector-curvature="0"
           transform="matrix(1.0166651,0,0,1.016665,-75.093431,19.117966)"
           id="path17648"
           d="m 830.64844,627.53906 -7.92774,4.57813 c -0.447,3.24998 -0.7655,6.48954 -1.01367,9.70703 l 7.49219,-4.32617 c 0.37247,-3.3542 0.85373,-6.66123 1.44922,-9.95899 z"
           style="opacity:1;fill:#2b1100;fill-opacity:1;stroke:#000000;stroke-width:0.5;stroke-linecap:round;stroke-linejoin:round;stroke-miterlimit:4;stroke-dasharray:none;stroke-opacity:1" />
        <path
           inkscape:connector-curvature="0"
           transform="matrix(1.0166651,0,0,1.016665,-75.093431,19.117966)"
           id="path17650"
           d="m 829.47266,635.21484 -7.60157,4.38868 c -0.2857,3.19126 -0.4654,6.34714 -0.59765,9.46679 l 7.2832,-4.20508 c 0.22405,-3.27168 0.51744,-6.48447 0.91602,-9.65039 z"
           style="opacity:1;fill:#3d1800;fill-opacity:1;stroke:#000000;stroke-width:0.5;stroke-linecap:round;stroke-linejoin:round;stroke-miterlimit:4;stroke-dasharray:none;stroke-opacity:1" />
        <path
           sodipodi:nodetypes="ccccc"
           inkscape:connector-curvature="0"
           transform="matrix(1.0166651,0,0,1.016665,-75.093431,19.117966)"
           id="path17652"
           d="m 821.69141,642.02344 c -0.20226,2.6591 -0.35586,5.29571 -0.45703,7.89844 l 7.02539,0 c 0.11849,-2.68412 0.16174,-2.3719 0.3789,-4.96094 z"
           style="opacity:1;fill:#2b1100;fill-opacity:1;stroke:#000000;stroke-width:0.5;stroke-linecap:round;stroke-linejoin:round;stroke-miterlimit:4;stroke-dasharray:none;stroke-opacity:1" />
        <path
           sodipodi:nodetypes="ccccc"
           inkscape:connector-curvature="0"
           transform="matrix(1.0166651,0,0,1.016665,-75.093431,19.117966)"
           id="path17654"
           d="m 821.34375,647.52344 c -0.1312,2.67182 -0.21874,5.30717 -0.26758,7.89844 l 7.00977,0 c 0.0603,-2.69519 0.17182,-2.62912 0.31445,-5.21094 z"
           style="opacity:1;fill:#401900;fill-opacity:1;stroke:#000000;stroke-width:0.5;stroke-linecap:round;stroke-linejoin:round;stroke-miterlimit:4;stroke-dasharray:none;stroke-opacity:1" />
        <path
           inkscape:connector-curvature="0"
           transform="matrix(1.0166651,0,0,1.016665,-75.093431,19.117966)"
           id="path17656"
           d="m 828.18555,652.27539 -7.08008,1.89844 c -0.064,2.78954 -0.10117,5.5379 -0.10352,8.20312 l 7.01953,-1.8789 c 0.0178,-2.81009 0.0722,-5.54888 0.16407,-8.22266 z"
           style="opacity:1;fill:#100600;fill-opacity:1;stroke:#000000;stroke-width:0.5;stroke-linecap:round;stroke-linejoin:round;stroke-miterlimit:4;stroke-dasharray:none;stroke-opacity:1" />
        <path
           inkscape:connector-curvature="0"
           transform="matrix(1.0166651,0,0,1.016665,-75.093431,19.117966)"
           id="path17658"
           d="m 823.00391,630.12109 c -0.10492,0.68962 -0.19848,1.37876 -0.29297,2.06836 l 6.76172,3.01563 c 0.0874,-0.69399 0.18446,-1.38522 0.28125,-2.07617 l -6.75,-3.00782 z m 6.11132,8.17774 -7.5957,6.0332 c -0.0578,0.90043 -0.10836,1.79346 -0.1543,2.6875 l 7.47657,-5.93945 c 0.0832,-0.93205 0.17554,-1.85786 0.27343,-2.78125 z m -7.84179,10.77539 c -0.038,0.8969 -0.0852,1.79926 -0.11328,2.6875 l 6.88086,6.67187 c 0.0114,-0.92125 0.0176,-1.85583 0.0371,-2.76171 l -6.80468,-6.59766 z"
           style="opacity:1;fill:#4d1e00;fill-opacity:1;stroke:#000000;stroke-width:0.5;stroke-linecap:round;stroke-linejoin:round;stroke-miterlimit:4;stroke-dasharray:none;stroke-opacity:1" />
        <path
           inkscape:connector-curvature="0"
           transform="matrix(1.0166651,0,0,1.016665,-75.093431,19.117966)"
           id="path17660"
           d="m 823.95703,624.6543 c -0.13958,0.71048 -0.27341,1.42092 -0.40039,2.13281 l 6.51172,4.20312 c 0.1122,-0.72303 0.22431,-1.44661 0.34766,-2.16796 l -6.45899,-4.16797 z m -1.86328,12.68554 c -0.0747,0.72534 -0.14971,1.45052 -0.21484,2.17383 l 6.78515,3.72852 c 0.0566,-0.73409 0.11653,-1.46547 0.18164,-2.19336 l -6.75195,-3.70899 z m -0.96289,15.72071 c -0.0246,0.91742 -0.0465,1.83025 -0.0625,2.73633 l 6.93555,6.7246 c 7.8e-4,-0.94237 0.0175,-1.84813 0.0254,-2.77343 l -6.89844,-6.6875 z m -0.12305,8.58789 c -9.2e-4,0.3952 -0.008,0.80519 -0.008,1.19726 0,0.28974 0.005,0.59331 0.006,0.88477 l 7.01953,1.91601 c -0.005,-0.69791 -0.0182,-1.38031 -0.0195,-2.08789 l -6.99805,-1.91015 z"
           style="opacity:1;fill:#1a0a00;fill-opacity:1;stroke:#000000;stroke-width:0.5;stroke-linecap:round;stroke-linejoin:round;stroke-miterlimit:4;stroke-dasharray:none;stroke-opacity:1" />
      </g>
      <g
         transform="translate(-13.724978,-43.716595)"
         id="g17671">
        <path
           style="fill:#000000;fill-rule:evenodd;stroke:none;stroke-width:1.0166651px;stroke-linecap:butt;stroke-linejoin:miter;stroke-opacity:1"
           d="m 750.9251,521.58216 c -0.5891,-3.15459 1.47198,-6.06634 4.54723,-6.48019 -3.7539,1.86799 -3.39024,4.10738 -3.54821,5.61271 z"
           id="path17415"
           inkscape:connector-curvature="0"
           sodipodi:nodetypes="cccc" />
        <path
           style="opacity:0.25;fill:#ffffff;fill-rule:evenodd;stroke:none;stroke-width:1.0166651px;stroke-linecap:butt;stroke-linejoin:miter;stroke-opacity:1"
           d="m 749.34363,518.78017 c 0.37581,-2.60716 2.47487,-4.90709 4.45104,-5.83918 1.97617,-0.93209 5.08938,-1.10063 4.87255,1.13099 -0.24249,-2.21243 -4.16862,-1.21314 -5.76466,-0.0311 -1.24313,0.92068 -2.72197,2.16924 -3.55893,4.73929 z"
           id="path17662"
           inkscape:connector-curvature="0"
           sodipodi:nodetypes="cscsc" />
        <path
           style="opacity:0.594;fill:#000000;fill-rule:evenodd;stroke:none;stroke-width:1.0166651px;stroke-linecap:butt;stroke-linejoin:miter;stroke-opacity:1"
           d="m 751.96792,518.02804 c 0.52558,1.76311 4.49839,1.0742 7.36862,-3.93143 l -2.04434,4.67279 -3.72925,1.90955 -2.11173,0.13479 z"
           id="path17664"
           inkscape:connector-curvature="0"
           sodipodi:nodetypes="cccccc" />
      </g>
      <path
         sodipodi:nodetypes="cssssssscsssssccc"
         inkscape:connector-curvature="0"
         id="path17666"
         d="m 734.68826,474.98301 c -0.0917,0.63685 -0.11692,1.30809 -0.0477,2.02141 2.28322,23.50992 26.62538,30.79486 26.10565,82.08577 -0.10665,10.52492 -4.84441,25.57665 -9.55506,41.74681 -4.71063,16.17014 -5.32753,33.45874 -5.32753,48.45639 0,14.99767 0.6169,32.28625 5.32756,48.4564 4.71065,16.17016 9.44842,31.2219 9.55506,41.74681 0.51973,51.29093 -23.82243,58.57586 -26.10565,82.08578 -0.0728,0.74972 -0.0407,1.45355 0.0635,2.11871 2.29109,-23.75627 28.61701,-35.08028 28.137,-82.96741 -0.10665,-10.63953 -4.84442,-25.85527 -9.55506,-42.20153 -4.71066,-16.34626 -3.71006,-34.0033 -3.71006,-49.16431 0,-15.16099 0.6169,-32.63834 5.32756,-48.98459 4.71065,-16.34626 7.9802,-31.38182 7.93756,-42.0218 -0.19916,-49.69283 -25.85576,-59.21337 -28.13899,-82.97932 -0.0131,-0.137 -0.007,-0.26487 -0.0139,-0.39912 z"
         style="opacity:0.60100002;fill:#000000;fill-opacity:1;stroke:none;stroke-width:1.0166651;stroke-linecap:round;stroke-linejoin:round;stroke-miterlimit:4;stroke-dasharray:none;stroke-opacity:1" />
      <g
         transform="matrix(1,0,0,-1,-13.724948,1342.273)"
         id="g17676">
        <path
           sodipodi:nodetypes="cccc"
           inkscape:connector-curvature="0"
           id="path17678"
           d="m 750.9251,521.58216 c -0.5891,-3.15459 1.47198,-6.06634 4.54723,-6.48019 -3.7539,1.86799 -3.39024,4.10738 -3.54821,5.61271 z"
           style="fill:#000000;fill-rule:evenodd;stroke:none;stroke-width:1.0166651px;stroke-linecap:butt;stroke-linejoin:miter;stroke-opacity:1" />
        <path
           sodipodi:nodetypes="cscsc"
           inkscape:connector-curvature="0"
           id="path17681"
           d="m 749.34363,518.78017 c 0.37581,-2.60716 2.47487,-4.90709 4.45104,-5.83918 1.97617,-0.93209 5.08938,-1.10063 4.87255,1.13099 -0.24249,-2.21243 -4.16862,-1.21314 -5.76466,-0.0311 -1.24313,0.92068 -2.72197,2.16924 -3.55893,4.73929 z"
           style="opacity:0.25;fill:#ffffff;fill-rule:evenodd;stroke:none;stroke-width:1.0166651px;stroke-linecap:butt;stroke-linejoin:miter;stroke-opacity:1" />
        <path
           sodipodi:nodetypes="cccccc"
           inkscape:connector-curvature="0"
           id="path17683"
           d="m 751.96792,518.02804 c 0.52558,1.76311 4.49839,1.0742 7.36862,-3.93143 l -2.04434,4.67279 -3.72925,1.90955 -2.11173,0.13479 z"
           style="opacity:0.594;fill:#000000;fill-rule:evenodd;stroke:none;stroke-width:1.0166651px;stroke-linecap:butt;stroke-linejoin:miter;stroke-opacity:1" />
      </g>
      <path
         inkscape:connector-curvature="0"
         id="path17685"
         d="m 737.55955,476.55367 c -0.36225,0.32844 -0.62114,0.66878 -0.9849,0.86973 -0.36375,0.20096 -0.85043,0.29939 -1.74143,0.0874 l -0.13106,-0.0318 c 0.0238,0.21423 0.054,0.4238 0.0814,0.63542 l 0.11717,-0.11914 c 0.83612,0.15868 1.48088,0.11448 1.91816,-0.12709 0.32437,-0.1792 0.55614,-0.40946 0.77242,-0.63144 0.006,-0.0586 0.002,-0.12064 0.01,-0.17872 0.0639,-0.003 0.12169,-0.0117 0.18467,-0.0159 0.0369,-0.0364 0.0758,-0.0793 0.11318,-0.11318 l -0.33955,-0.3753 z m 0.24225,3.71123 -0.95511,1.29268 c -0.55003,-0.15768 -1.05553,-0.32847 -1.56471,-0.49841 0.0485,0.22224 0.10442,0.43956 0.15687,0.65924 0.32948,0.11696 0.66926,0.22977 1.03851,0.33757 l -0.70889,0.95908 c 0.0575,0.20602 0.11981,0.40956 0.1807,0.61357 l 1.06432,-1.44159 c 0.4375,0.11147 0.92198,0.21308 1.4416,0.3038 -0.0818,-0.22761 -0.1628,-0.45495 -0.23431,-0.67711 -0.26446,-0.0579 -0.55768,-0.10842 -0.8042,-0.17077 l 0.54407,-0.73867 c -0.0563,-0.2142 -0.11377,-0.43045 -0.15885,-0.63939 z m 1.48727,4.27317 c -0.92659,0.21414 -1.89135,0.37062 -2.911,0.44479 0.0637,0.18714 0.13215,0.37228 0.19857,0.55797 1.02899,-0.0974 2.00224,-0.27874 2.93482,-0.52025 -0.0751,-0.16119 -0.151,-0.32372 -0.22239,-0.48251 z m 0.70491,1.48727 c -0.9193,0.32678 -1.92629,0.52659 -3.00035,0.62946 0.0614,0.15688 0.11748,0.31657 0.18069,0.47259 1.08551,-0.10162 2.10969,-0.30197 3.05596,-0.63344 -0.0798,-0.15684 -0.15949,-0.31391 -0.2363,-0.46861 z m 1.01071,1.92411 c -1.02101,0.33286 -2.07417,0.57726 -3.17906,0.69102 0.0722,0.16103 0.14445,0.32217 0.21842,0.48252 1.11219,-0.13897 2.16835,-0.4077 3.18899,-0.75654 -0.0753,-0.13776 -0.15483,-0.28076 -0.22835,-0.417 z m 0.88958,1.61635 -1.11594,1.13977 c -0.69359,-0.0668 -1.41502,-0.15815 -2.10879,-0.276 0.0864,0.17464 0.17177,0.35007 0.26013,0.52421 0.4683,0.0722 0.94468,0.13594 1.41975,0.19062 l -0.85979,0.88165 c 0.0834,0.15709 0.16134,0.31568 0.24622,0.47258 l 1.22317,-1.25097 c 0.16777,0.0141 0.33536,0.0783 0.49841,0.0874 0.52484,0.0295 0.99993,0.0199 1.44359,-0.01 -0.0931,-0.15988 -0.19254,-0.32848 -0.28396,-0.4865 -0.35048,0.0123 -0.72795,0.0109 -1.13381,-0.0119 -0.0311,-0.002 -0.064,-0.014 -0.0953,-0.0159 l 0.7625,-0.78038 c -0.0917,-0.16066 -0.16653,-0.30593 -0.25616,-0.46464 z m 1.45154,2.51981 c -0.33342,0.58596 -0.66129,1.16634 -1.00475,1.70173 -0.32001,0.49879 -0.67396,0.95597 -1.09412,1.3582 0.0888,0.15168 0.17039,0.30281 0.26013,0.45472 0.50012,-0.45798 0.90742,-0.98283 1.26289,-1.53691 0.31077,-0.48442 0.58385,-0.99225 0.85979,-1.4972 -0.0963,-0.16312 -0.18915,-0.31925 -0.28394,-0.48054 z"
         style="color:#000000;font-style:normal;font-variant:normal;font-weight:normal;font-stretch:normal;font-size:medium;line-height:normal;font-family:sans-serif;text-indent:0;text-align:start;text-decoration:none;text-decoration-line:none;text-decoration-style:solid;text-decoration-color:#000000;letter-spacing:normal;word-spacing:normal;text-transform:none;direction:ltr;block-progression:tb;writing-mode:lr-tb;baseline-shift:baseline;text-anchor:start;white-space:normal;clip-rule:nonzero;display:inline;overflow:visible;visibility:visible;opacity:1;isolation:auto;mix-blend-mode:normal;color-interpolation:sRGB;color-interpolation-filters:linearRGB;solid-color:#000000;solid-opacity:1;fill:#000000;fill-opacity:1;fill-rule:evenodd;stroke:none;stroke-width:0.50833255;stroke-linecap:butt;stroke-linejoin:miter;stroke-miterlimit:4;stroke-dasharray:none;stroke-dashoffset:0;stroke-opacity:1;color-rendering:auto;image-rendering:auto;shape-rendering:auto;text-rendering:auto;enable-background:accumulate" />
      <path
         inkscape:connector-curvature="0"
         style="color:#000000;font-style:normal;font-variant:normal;font-weight:normal;font-stretch:normal;font-size:medium;line-height:normal;font-family:sans-serif;text-indent:0;text-align:start;text-decoration:none;text-decoration-line:none;text-decoration-style:solid;text-decoration-color:#000000;letter-spacing:normal;word-spacing:normal;text-transform:none;direction:ltr;block-progression:tb;writing-mode:lr-tb;baseline-shift:baseline;text-anchor:start;white-space:normal;clip-rule:nonzero;display:inline;overflow:visible;visibility:visible;opacity:1;isolation:auto;mix-blend-mode:normal;color-interpolation:sRGB;color-interpolation-filters:linearRGB;solid-color:#000000;solid-opacity:1;fill:#000000;fill-opacity:1;fill-rule:evenodd;stroke:none;stroke-width:0.50833255;stroke-linecap:butt;stroke-linejoin:miter;stroke-miterlimit:4;stroke-dasharray:none;stroke-dashoffset:0;stroke-opacity:1;color-rendering:auto;image-rendering:auto;shape-rendering:auto;text-rendering:auto;enable-background:accumulate"
         d="m 737.55955,821.92931 c -0.36225,-0.32844 -0.62115,-0.66877 -0.9849,-0.86973 -0.36375,-0.20095 -0.85043,-0.29939 -1.74143,-0.0874 l -0.13106,0.0318 c 0.0238,-0.21423 0.054,-0.4238 0.0814,-0.63542 l 0.11716,0.11915 c 0.83613,-0.15868 1.48089,-0.11449 1.91817,0.12708 0.32437,0.1792 0.55614,0.40946 0.77242,0.63144 0.006,0.0586 0.002,0.12064 0.01,0.17872 0.0639,0.003 0.12168,0.0117 0.18467,0.0159 0.0369,0.0364 0.0758,0.0793 0.11318,0.11319 l -0.33955,0.37529 z m 0.24225,-3.71123 -0.95511,-1.29268 c -0.55004,0.15768 -1.05553,0.32847 -1.56471,0.49841 0.0485,-0.22224 0.10441,-0.43956 0.15686,-0.65924 0.32948,-0.11696 0.66926,-0.22977 1.03852,-0.33756 l -0.70889,-0.95909 c 0.0575,-0.20601 0.11981,-0.40956 0.1807,-0.61356 l 1.06432,1.44159 c 0.4375,-0.11148 0.92198,-0.21309 1.4416,-0.3038 -0.0819,0.2276 -0.1628,0.45494 -0.23432,0.67711 -0.26445,0.0579 -0.55768,0.10841 -0.80419,0.17077 l 0.54407,0.73866 c -0.0563,0.2142 -0.11377,0.43045 -0.15885,0.63939 z m 1.48727,-4.27317 c -0.92659,-0.21414 -1.89136,-0.37062 -2.911,-0.44479 0.0637,-0.18714 0.13215,-0.37227 0.19856,-0.55797 1.029,0.0974 2.00224,0.27874 2.93483,0.52025 -0.0751,0.16119 -0.151,0.32373 -0.22239,0.48251 z m 0.70491,-1.48727 c -0.9193,-0.32678 -1.92629,-0.52659 -3.00035,-0.62946 0.0614,-0.15688 0.11748,-0.31657 0.18069,-0.47258 1.0855,0.10161 2.10968,0.30197 3.05595,0.63343 -0.0798,0.15684 -0.15948,0.31391 -0.23629,0.46861 z m 1.01071,-1.92411 c -1.02101,-0.33286 -2.07417,-0.57726 -3.17906,-0.69102 0.0722,-0.16103 0.14445,-0.32217 0.21842,-0.48252 1.11219,0.13897 2.16835,0.40771 3.18899,0.75654 -0.0753,0.13776 -0.15484,0.28077 -0.22835,0.417 z m 0.88958,-1.61634 -1.11594,-1.13978 c -0.69359,0.0668 -1.41503,0.15815 -2.10879,0.27601 0.0864,-0.17465 0.17177,-0.35008 0.26012,-0.52422 0.46831,-0.0722 0.94469,-0.13593 1.41976,-0.19062 l -0.8598,-0.88164 c 0.0835,-0.1571 0.16135,-0.31569 0.24623,-0.47259 l 1.22317,1.25098 c 0.16777,-0.0141 0.33536,-0.0783 0.49841,-0.0874 0.52483,-0.0295 0.99993,-0.0199 1.44358,0.01 -0.0931,0.15987 -0.19253,0.32847 -0.28395,0.48649 -0.35049,-0.0123 -0.72795,-0.0109 -1.13382,0.0119 -0.0311,0.002 -0.064,0.014 -0.0953,0.0159 l 0.7625,0.78037 c -0.0916,0.16066 -0.16653,0.30593 -0.25616,0.46465 z m 1.45153,-2.51982 c -0.33341,-0.58595 -0.66129,-1.16634 -1.00475,-1.70172 -0.32,-0.4988 -0.67395,-0.95597 -1.09411,-1.35821 0.0887,-0.15167 0.17039,-0.30281 0.26012,-0.45472 0.50013,0.45799 0.90743,0.98283 1.26289,1.53691 0.31078,0.48442 0.58386,0.99226 0.8598,1.4972 -0.0963,0.16312 -0.18915,0.31926 -0.28395,0.48054 z"
         id="path17710" />
    </g>
  </g>
</svg>
