<?xml version="1.0" encoding="UTF-8" standalone="no"?>
<svg id="svg4310" xmlns:rdf="http://www.w3.org/1999/02/22-rdf-syntax-ns#" xmlns="http://www.w3.org/2000/svg" height="1352" viewBox="0 0 1401 1352" width="1401" version="1.1" xmlns:cc="http://creativecommons.org/ns#" xmlns:dc="http://purl.org/dc/elements/1.1/">
<path id="path4320" d="m1378 1340.5c-5.775-2.4031-18.825-7.5741-29-11.491-25.591-9.8518-46.846-18.397-57.5-23.117-4.95-2.193-11.025-4.8269-13.5-5.8531-28.139-11.668-86.562-39.685-112.27-53.84-2.878-1.5848-7.9328-4.349-11.233-6.1427-15.572-8.4641-43.793-24.835-52.5-30.455-1.925-1.2426-8.675-5.5356-15-9.5401-12.58-7.9644-43.553-29.195-51.5-35.301-6.2584-4.8084-16.983-13.178-25.62-19.995-71.39-56.4-122.09-124.6-140.33-188.8-1.9528-6.875-3.9687-13.85-4.4799-15.5-0.51119-1.65-1.2203-4.4314-1.5758-6.1809-0.81536-4.0126-1.2286-4.3092-11.518-8.266-4.675-1.7978-12.388-4.7952-17.139-6.6609-11.281-4.4297-12.905-4.3786-16.295 0.5132-1.4885 2.148-9.7393 10.36-18.335 18.25-8.5957 7.8895-18.569 17.045-22.163 20.345-22.964 21.087-28.734 26.973-29.29 29.878-0.5305 2.7751 2.239 58.084 4.2623 85.122 2.0963 28.012 3.8932 42.793 5.7745 47.5 1.1962 2.9925 38.46 39.988 89.182 88.538 39.291 37.609 85.003 86.545 85.003 90.998 0 1.6257-1.2206 1.9762-12 3.4463-4.675 0.6375-10.975 1.5605-14 2.0509-46.172 7.4863-85.044 7.1856-151-1.1682-118.35-14.99-210.24-36.463-253.35-59.204-62.6-33.02-91.429-98.377-107.7-244.16-0.88216-7.9036-3.8349-30.983-8.4438-66-1.303-9.9-4.025-29.025-6.0488-42.5s-4.2669-28.55-4.9847-33.5c-2.215-15.274-2.0582-14.926-8.8297-19.644-3.3761-2.3526-9.7723-7.445-14.214-11.317-4.45-3.88-14.12-12.23-21.49-18.55-51.57-44.22-99.86-101.3-146.78-173.5-12.66-19.48-26.39-42.97-38.87-66.5-6.37-12.02-26.29-51.66-26.29-52.33 0-0.24527-1.9766-4.6595-4.3925-9.8095-9.29-19.8-24.296-56.67-34.939-85.86-5.888-16.15-8.002-22.36-17.196-50.5-4.254-13.02-8.589-27.55-11.94-40-1.48-5.5-3.756-13.82-5.058-18.5-8.003-28.75-16.912-69.87-25.132-116-1.421-7.98-2.988-16.75-3.483-19.5s-1.32-7.92-1.834-11.5c-0.513-3.58-2.062-13.81-3.443-22.75-19.811-128.25 19.175-154.96 187.92-128.75 53.121 8.2507 59.831 9.3481 73.5 12.021 41.544 8.1236 67.804 14.823 106 27.042 18.04 5.7712 41.503 14.038 46.739 16.469 2.33 1.083 4.64 1.968 5.13 1.968 3.6422 0 55.57 23.151 80.536 35.906 45.914 23.456 117.63 68.046 134.14 83.401 0.70509 0.65585 4.5361 3.6675 8.5133 6.6925 42.266 32.146 88.075 75.328 128.36 121 6.2761 7.1149 23.277 27.735 28.997 35.17 7.3189 9.5131-0.51819 8.5234 93.587 11.819 69.529 2.4348 120.44 6.2676 154.5 11.632 10.838 1.7069 34.855 6.0825 40.5 7.3786 1.925 0.44199 5.525 1.2645 8 1.8277 84.784 19.295 123.96 46.946 144.42 101.94 0.8671 2.3301 2.3023 6.1491 3.1894 8.4866 2.7393 7.2187 14.495 41.078 15.363 44.25 0.4517 1.65 1.7913 5.925 2.9769 9.5 2.9887 9.012 10.741 35.38 14.112 48 1.5426 5.775 3.7401 13.875 4.8834 18 1.1432 4.125 2.5066 9.525 3.0296 12 0.5231 2.475 2.1144 9.225 3.5363 15 2.4982 10.146 7.7609 33.289 9.4371 41.5 1.2733 6.2375 5.9145 29.447 6.9989 35 3.1673 16.219 7.5038 44.303 9.9596 64.5 2.972 24.442 4.0121 35.371 7.0904 74.5 1.4198 18.048 1.1512 59.13-0.3951 60.413-2.0507 1.7019-43.668-40.26-93.605-94.379-9.075-9.8351-17.625-19.075-19-20.534-1.375-1.4584-9.6777-10.268-18.45-19.576-33.885-35.954-75.209-76.048-79.496-77.129-1.4045-0.35424-13.804-0.10995-27.554 0.54287-21.98 1.0436-31.825 1.7156-52 3.5499-2.75 0.25002-11.075 0.97811-18.5 1.618-7.425 0.63987-16.868 1.4628-20.985 1.8286l-7.4851 0.6652-0.59348 3.6642c-0.66084 4.0801-21.996 37.541-33.087 51.891-10.027 12.975-20.814 21.913-26.501 21.96-4.7638 0.0395-4.8025 1.3442-0.34495 11.627 2.3503 5.4218 6.0226 13.903 8.1607 18.848 4.7105 10.894 4.3224 10.516 14.835 14.449 7.3066 2.7334 14.851 5.6897 35.5 13.911 32.095 12.778 86.737 46.729 118.5 73.628 5.225 4.4249 11.075 9.2256 13 10.668 30.162 22.604 96.152 98.429 132.5 152.25 4.4 6.515 9.431 13.929 11.18 16.475 3.8449 5.5976 18.659 29.2 19.218 30.619 0.2191 0.5561 1.6816 2.8921 3.25 5.1912s2.8517 4.4278 2.8517 4.7306c0 0.3027 1.589 3.0344 3.5311 6.0704 13.138 20.539 45.972 83.341 66.406 127.02 5.6609 12.1 12.898 27.4 16.082 34 17.324 35.907 17.389 35.037-2.0199 26.96zm-36.756-45.353c-0.4341-1.9384-12.376-26.457-14.177-29.107-0.9342-1.375-4.5186-8.8-7.9653-16.5-4.7776-10.673-29.72-57.259-37.637-70.296-0.569-0.937-2.0483-3.5036-3.2874-5.7036-7.7008-13.673-23.376-38.851-35.176-56.5-12.352-18.474-18.19-27.063-19.698-28.979-0.6582-0.8364-6.7332-8.8563-13.5-17.822-14.326-18.981-16.467-21.723-23.668-30.305-2.9504-3.5165-7.2254-8.6242-9.5-11.35-23.173-27.774-64.255-67.92-89.15-87.117-29.209-22.524-55.564-40-74.745-49.561-3.4328-1.7112-8.4914-4.2401-11.241-5.6197-18.361-9.2113-34.5-15.699-34.5-13.867 0 0.53149 2.7775 7.1844 5.5262 13.237 2.5143 5.5363 3.4509 6.4181 25.111 23.643 51.199 40.714 95.667 87.704 135.55 143.24 4.0804 5.6812 21.994 32.766 28.912 43.714 3.9131 6.1927 12.05 20.27 24.443 42.286 1.548 2.75 4.3493 7.925 6.2251 11.5s4.4944 8.3801 5.8191 10.678c5.8309 10.115 3.9447 9.7638-25.027-4.6548-104.26-51.887-195.9-124.97-242.49-193.37-3.5773-5.252-4.5546-5.7933-20.57-11.394-5.5-1.9233-10.557-3.9432-11.237-4.4886-2.6379-2.1141-4.2028-0.14366-3.1179 3.9258 15.956 59.855 71.521 129.35 150.69 188.46 8.0662 6.0228 16.016 11.958 17.666 13.189 9.4593 7.058 43.83 29.416 62.3 40.526 16.694 10.042 27.953 16.476 45.7 26.116 3.3 1.7925 8.9012 4.8509 12.447 6.7964 20.485 11.24 72.932 36.527 100.05 48.241 11.564 4.9948 37.922 15.986 43.5 18.139 2.75 1.0616 6.35 2.5739 8 3.3607 3.2598 1.5545 5.148 1.3897 4.7441-0.414zm-466.32-10.974c9.8955-0.9756 6.3421-5.2574-46.999-56.633-72.877-70.191-91.381-88.52-93.383-92.5-4.4622-8.8672-8.1253-47.243-12.101-126.78-0.78198-15.643 0.76285-14.03-16.938-17.69-46.396-9.5939-104.13-27.138-157.5-47.864-17.612-6.8392-49.29-20.793-64.349-28.346-13.555-6.798-13.744-2.0676-2.6819 67.175 0.5272 3.3 1.4405 9.375 2.0296 13.5 1.855 12.989 4.6986 31.334 6.0455 39 0.53147 3.025 2.7439 16.3 4.9166 29.5 5.1895 31.529 8.8477 52.938 9.996 58.5 0.51099 2.475 1.8704 9.675 3.0208 16 2.1537 11.84 3.0416 16.508 4.9458 26 0.60687 3.025 2.4357 12.25 4.0641 20.5 4.2827 21.698 7.8059 37.246 8.9057 39.301 1.2184 2.2766 25.423 11.888 44.607 17.712 4.95 1.5029 10.915 3.348 13.256 4.1002 4.4727 1.4372 33.537 8.8446 41.244 10.512 2.475 0.5354 6.075 1.3555 8 1.8226 11.088 2.6902 56.401 11.4 65.5 12.589 2.75 0.3596 8.825 1.2984 13.5 2.0862 4.675 0.7879 12.325 1.8654 17 2.3946 4.675 0.5291 11.65 1.4157 15.5 1.9701 3.85 0.5545 11.725 1.4594 17.5 2.0109s15.45 1.4932 21.5 2.0926c32.634 3.2332 76.006 4.661 92.421 3.0425zm-371.25-72.002c-0.28776-1.4474-2.3744-11.182-4.6369-21.632-5.3104-24.527-7.9128-36.903-8.937-42.5-0.45288-2.475-2.4386-12.6-4.4127-22.5-9.8194-49.244-19.375-100.57-25.136-135-6.6022-39.465-8.4171-51.01-11.003-70-3.7807-27.759-2.5493-25.223-15.81-32.553-6.1783-3.4148-14.944-8.6524-19.48-11.639-7.9511-5.2359-10.915-5.9834-9.8104-2.4739 0.74633 2.3708 1.718 9.1565 8.4725 59.166 6.4029 47.407 7.6682 56.719 9.1036 67 0.49912 3.575 1.8482 13.475 2.998 22 2.3462 17.396 5.2952 35.786 7.5366 47 0.82455 4.125 1.9599 9.975 2.523 13 1.8591 9.9875 4.6732 21.734 9.8757 41.225 10.507 39.361 28.578 70.567 50.54 87.274 7.3705 5.6067 9.0322 5.9386 8.1762 1.6331zm651.9-93.455c-1.4117-1.8509-2.5668-3.691-2.5668-4.0892 0-3.476-38.543-56.972-52.933-73.469-33.594-38.512-56.255-61.15-99.567-99.464-5.9826-5.2922-6.5187-3.1207-1.7461 7.0728 15.02 31.96 16.62 36.35 13.82 36.35-2.7377 0-30.528-8.5779-39.251-12.116-5.9583-2.4163-6.2141 0.16621-0.67351 6.7994 37.724 45.163 81.415 81.919 148.41 124.85 28.775 18.441 41.963 23.835 34.567 14.139zm-397.74-167.85c20.686-20.252 38.51-42.066 37.791-46.25-0.53471-3.1114-52.822-108.09-54.884-110.19-1.491-1.5197-2.7199-0.56691-8.6396 6.6988-10.256 12.589-43.433 48.454-59.622 64.454-25.858 25.557-54.119 51.858-65.299 60.772-1.499 1.1951 1.7375 4.7634 4.3205 4.7634 0.66263 0 6.062 1.5743 11.999 3.4985l10.794 3.4985 11.237-9.4812c6.1802-5.2146 12.318-10.515 13.641-11.78 1.3221-1.2642 5.998-5.4345 10.391-9.2674 4.3929-3.8329 8.5944-7.5382 9.3366-8.234 2.3983-2.2485 7.8462-6.2349 8.5207-6.2349 3.0515 0-5.4456 10.157-25.782 30.818-18.15 18.44-17.769 17.04-5.5619 20.446 13.731 3.8318 11.614 4.6123 28.563-10.534 25.618-22.892 27.024-18.497 1.9981 6.2439-10.085 9.9696-10.016 10.152 4.9388 13.053 3.3 0.64019 9.093 1.8138 12.873 2.608 8.0238 1.6857 6.1658 2.6022 21.055-10.386 5.8322-5.0875 11.047-9.25 11.588-9.25 2.9601 0-1.3511 6.098-11.766 16.643-5.3285 5.3948-3.9271 7.0901 6.2917 7.6108 17.518 0.89266 14.471 1.9972 26.218-9.5037zm211.24-14.56c0-0.32976-1.8342-3.2144-4.076-6.4103-4.59-6.55-22.42-41.35-31.65-61.78-3.35-7.42-7.43-16.42-9.07-20-7.86-17.18-21.2-47.82-21.2-48.7 0-2.1129-4.3918-4.725-17.272-10.273-21.6-9.3043-71.077-34.275-96.412-48.658-2.3012-1.3065-7.0262-3.8846-10.5-5.7291-9.5903-5.0923-44.015-24.09-46.541-25.685-4.0092-2.5306-4.7631 0.0457-1.8032 6.1622 1.4328 2.9608 4.2417 9.2083 6.242 13.883 9.3902 21.946 27.538 55.811 49.184 91.779 6.3812 10.603 12.052 20.06 12.602 21.014 0.55 0.95442 2.1243 3.529 3.4984 5.7212s3.1741 5.1675 4 6.6116c17.408 30.44 20.075 33.892 28.502 36.893 3.3 1.1753 9.825 3.6563 14.5 5.5134 9.4218 3.7427 21.114 8.0697 34 12.582 4.675 1.6372 9.4 3.3741 10.5 3.8598 3.3662 1.4864 15.874 5.7574 41.5 14.172 13.475 4.4244 26.066 8.6227 27.979 9.3296 3.2624 1.205 6.0205 1.0724 6.0205-0.28948zm-360.41-32.41c37.758-34.547 83.442-81.541 114.91-118.21 8.9163-10.388 9.3915-6.8268-4.7546-35.633-15.414-31.388-17.444-35.735-18.278-39.146-1.4703-6.0066-2.5557-5.3337-16.918 10.488-7.5989 8.3714-17.469 19.046-21.935 23.721-4.4651 4.675-10.558 11.2-13.54 14.5-26.012 28.785-98.898 101.19-122.86 122.05-14.896 12.966-16.359 11.427 26.287 27.656 4.4 1.6744 10.925 4.1566 14.5 5.5159s9.2 3.5115 12.5 4.7826c9.3999 3.6208 8.3366 4.1764 30.085-15.722zm-111.23-22.41c19.21-16.04 73.58-70.52 118.68-118.9 17.29-18.56 26.27-28.36 59.48-64.97 11.83-13.03 37.56-42.22 40.48-45.91 1.375-1.7382 10.378-12.369 20.006-23.624 9.6283-11.255 24.899-29.463 33.934-40.463 9.0355-11 19.41-23.6 23.055-28 3.6445-4.4 7.4992-9.178 8.5659-10.618 1.0667-1.4398 5.0895-6.5537 8.9395-11.364 15.059-18.817 14.453-18.03 44.33-57.518 5.4322-7.1797 5.3401-7.9522-2.4657-20.68-13.332-21.739-14.975-23.899-16.739-22.006-0.61903 0.66415-5.3889 6.1528-10.6 12.197-19.147 22.209-54.839 57.009-56.632 55.216-0.6431-0.6431 5.194-8.3938 14.103-18.727 13.239-15.355 32.039-38.557 37.563-46.359 11.656-16.464 11.85-12.216-1.4135-30.891-9.8718-13.899-10.44-14.291-13.766-9.5-3.8596 5.5605-36.312 42.187-42.172 47.596-6.2638 5.7819-6.2673 0.99132-0.005-6.9305 3.2241-4.0786 6.948-8.9907 8.2754-10.916 1.3273-1.925 4.9552-6.65 8.062-10.5 21.019-26.047 23.873-32.128 18.21-38.788-2.0625-2.4255-8.536-10.44-14.386-17.811-18.061-22.756-15.17-21.913-26.837-7.8262-17.853 21.556-36.056 40.23-37.656 38.63-0.85392-0.85392 2.157-5.8113 7.614-12.536 36.791-45.34 36.32-43.666 17.937-63.72-17.7-19.31-15.41-18.71-25.42-6.76-11.23 13.41-29.42 32.31-31.1 32.31-2.2619 0-1.6277-2.4446 1.7154-6.6125 3.106-3.8722 5.9765-7.6415 22.294-29.273 10.713-14.203 10.749-13.41-1.143-25.347-11.136-11.178-11.25-11.217-16.133-5.5409-15.16 17.624-34.766 37.476-35.896 36.346-0.77157-0.77156 2.842-5.9667 19.136-27.511 17.149-22.674 17.108-19.212 0.40323-34.562-14.619-13.433-14.219-13.382-23.506-3-16.448 18.387-26.33 27.777-27.745 26.362-0.6632-0.66321 4.2164-7.698 16.721-24.107 14.765-19.374 14.795-19.238-8.1223-36.2-1.4452-1.0696-4.7151-3.6571-7.2665-5.75-5.6579-4.6412-6.9313-4.7093-10.387-0.55521-16.872 20.282-36.33 40.294-37.774 38.85-1.2308-1.2308 0.22716-3.4304 15.313-23.1 21.25-27.707 20.522-24.914 8.7374-33.545-5.0875-3.7262-10.722-7.858-12.521-9.1818-4.9558-3.6468-5.94-2.9521-19.136 13.508-22.742 28.368-31.715 33.915-14.112 8.7257 23.667-33.869 23.348-30.138 3.5193-41.043-2.75-1.5124-6.125-3.506-7.5-4.4302-5.81-3.9-37.84-21.03-39.33-21.03-0.89478 0-6.0241 5.0316-11.399 11.181-36.668 41.958-51.014 53.803-32.482 26.819 16.929-24.65 19.509-28.67 24.792-38.634 3.6948-6.969 3.2107-7.624-10.315-13.958-6.48-3.03-12.67-5.94-13.77-6.46-23.31-11.05-27.76-11.59-34.24-4.2-29.65 33.87-53.74 51.64-27.99 20.66 26.64-32.064 24.66-29.24 22.03-31.366-6.08-4.928-41.84-15.066-42.77-12.128-1.55 4.869-36.53 36.674-36.53 33.214 0-1.3757 6.9988-10.237 21.25-26.904 10.186-11.913 10.373-10.969-2.919-14.763-4.8571-1.3864-9.3772-2.712-10.045-2.9457-1.132-0.39644-11.283 7.4059-19.286 14.824-1.925 1.7842-7.3157 6.6002-11.979 10.702-30.17 26.54-70.13 67.16-111.11 112.96-12.001 13.412-43.595 50.996-56.323 67-5.905 7.425-12.166 15.259-13.914 17.409-4.2454 5.2231-37.301 49.315-41.484 55.333-1.8183 2.6165-5.5308 7.8949-8.25 11.73-6.1621 8.6904-6.1638 8.6034 0.54672 28.636 10.171 30.364 9.954 30.056 16.519 23.461 7.3142-7.3475 8.0726-3.5231 0.95116 4.7968-5.9021 6.8953-6.0656 4.9036 2.0641 25.133 1.7682 4.4 3.8713 9.7964 4.6736 11.992 3.1652 8.663 2.2917 8.95 18.998-6.2421 7.7117-7.0125 15.514-13.61 17.339-14.661l3.3177-1.911-4.2949 6.1228c-2.3622 3.3676-8.4043 10.512-13.427 15.876-5.0225 5.364-10.369 11.073-11.882 12.686-3.1395 3.3492-3.32 4.5865-1.311 8.9859 0.79145 1.7331 3.6631 8.1011 6.3815 14.151 12.419 27.639 11.518 26.529 17.179 21.168 3.4326-3.2508 18.359-16.511 26.924-23.918 6.0293-5.2143 8.7448-5.0882 4.4504 0.20668-0.68845 0.84883-2.8887 3.5683-4.8894 6.0433-2.0008 2.475-9.0669 10.006-15.703 16.736l-12.065 12.236 1.656 4.2636c2.779 7.1546 18.328 36.173 19.922 37.178 1.1397 0.71892 4.2783-1.4188 13.193-8.9857 27.879-23.664 30.617-21.816 5.2403 3.5377-10.887 10.877-13.629 14.154-13.094 15.646 1.3677 3.8134 21.793 37.614 23.013 38.082 1.2013 0.46097 10.634-6.926 25.853-20.247 26.134-22.874 23.244-15.097-4.7335 12.738-8.67 8.62-15.76 15.97-15.76 16.33 0 0.66837 4.0689 7.1056 11.841 18.734 5.9549 8.909 7.1077 8.3964 34.071-15.15 11.753-10.263 26.543-23.312 30.309-26.74 3.4904-3.1773 8.5803-5.8914 9.4387-5.033 1.2935 1.2935-43.755 47.93-56.41 58.398-5.5036 4.5527-5.3781 5.8006 1.5 14.907 3.1625 4.1871 6.7091 9.0202 7.8814 10.74 1.1722 1.7201 3.2539 4.166 4.626 5.4353l2.4947 2.3078 7.374-6.2965c4.0557-3.4631 13.494-11.762 20.975-18.443 28.499-25.451 23.013-14.973-9.5161 18.176-14.967 15.252-14.831 12.894-1.6594 28.833 13.092 15.843 8.3138 17.545 46.013-16.392 28.462-25.621 24.099-16.165-7.2372 15.688-22.935 23.313-22.059 20.159-9.3781 33.773 12.503 13.424 8.5593 15.314 50.999-24.446 21.071-19.741 29.76-27.259 30.57-26.449 1.6362 1.6362-19.258 25.89-42.824 49.71-22.194 22.434-22.144 22.756 7.2111 45.746 3.9192 3.0695 2.8736 3.9086 52.646-42.248 30.702-28.471 6.3553 3.998-29.352 39.144-11.235 11.058-11.547 11.481-10.097 13.694 1.2405 1.8932 24.291 20.482 28.202 22.744 1.5115 0.87387 18.401-13.145 35.779-29.698 48.354-46.059 38.244-27.693-13.155 23.897-12.405 12.452-12.848 13.379-7.9573 16.688 24.737 16.738 19.872 16.99 41.647-2.1572 4.74-4.168 11.275-9.8283 14.521-12.578 3.2466-2.75 6.8214-5.915 7.9439-7.0334 7.2586-7.2314 15.541-13.035 15.541-10.891 0 1.8833-11.256 14.453-28.431 31.748-22.611 22.769-21.826 20.349-9.0113 27.81 13.662 7.9537 10.728 9.3494 44.442-21.143 13.612-12.311 17-14.711 17-12.044 0 1.6828-10.025 13.059-25.107 28.491-17.106 17.503-16.984 15.611-1.4984 23.211 12.589 6.1783 12.787 6.2101 16.961 2.7241zm46.14-232.89c-81.05-13.37-115.21-114.32-61.58-181.98 53.34-67.3 155.82-45.11 177.92 38.52 20.81 78.71-41.7 155.78-116.34 143.46zm32.329-23.49c48.224-13.442 75.094-70.906 57.672-123.34-23.599-71.02-113.53-74.619-145.76-5.8345-32.106 68.513 21.853 147.64 88.092 129.17zm-34.83-21.89c-45.648-12.52-60.894-78.8-26.36-114.6 38.104-39.498 97.043-17.082 103.45 39.346 5.2993 46.637-35.659 86.616-77.095 75.251zm30.25-34.376c28.274-13.1 35.773-49.902 13.771-67.584-5.7396-4.6125-6.759-3.6423-6.9335 6.5988-0.19936 11.703-2.8827 36.459-4.0818 37.658-1.969 1.969-2.405-0.9371-3.7669-25.108-1.4656-26.012-1.739-27.167-6.4536-27.254-2.9009-0.0538-3.5008 2.8598-4.2146 20.468-1.684 41.544-6.0254 53.163-7.6946 20.594-1.3492-26.325-1.8602-36.538-1.8684-37.344-0.0152-1.4924-4.5945-0.66789-8.4643 1.524-4.5689 2.5878-5.2918 4.4659-5.4762 14.226-0.17415 9.2211-2.5214 27.702-3.8111 30.007-1.6274 2.9081-3.0667-6.067-3.206-19.992-0.14009-14.009-0.78171-15.249-4.9299-9.5223-24.391 33.671 9.1466 73.327 47.13 55.728zm-230.75-96.39c-89.11-11.12-125.5-115.49-65.99-189.27 70.19-87.02 202.22-45.6 201.57 63.23-0.43 72.09-67.59 134.52-135.58 126.04zm34.5-27.72c72.4-18.56 101.35-109.82 50.48-159.11-45.63-44.21-127.17-20.56-149.94 43.48-24.22 68.11 31.61 133.01 99.46 115.63zm-26.5-19.96c-55.59-11.99-74.7-83.87-32.66-122.8 48.53-44.93 125.5 3.87 110.65 70.15-8.03 35.79-43.89 60-77.99 52.65zm18.701-27.772c28.64-6.08 44.52-42.44 30.08-68.88-5.7126-10.46-7.0295-9.2907-7.2006 6.393-0.28639 26.253-2.9224 25.303-6.1553-2.2182-2.318-19.732-2.8555-20.953-9.6283-21.861l-3.9931-0.53559-0.56571 30.361c-0.53686 28.813-1.3623 36.832-3.646 35.42-0.96233-0.59475-1.8628-6.1842-2.5872-16.059-0.24206-3.3-1.3555-13.105-2.4743-21.788-1.11-8.68-2.03-17.65-2.03-19.92 0-5.7201-2.1496-7.9597-6.332-6.5973-6.135 1.9985-6.4421 3.0138-6.5149 21.532-0.0965 24.558-1.2484 36.579-3.3077 34.52-0.92104-0.92104-4.7631-32.081-4.839-39.245-0.0885-8.3549-3.2129-7.5112-8.8829 2.3986-19.746 34.512 2.8451 73.952 38.077 66.477zm940.25 457.85c-0.2363-1.2259-0.8792-6.954-1.4286-12.729-1.8306-19.242-11.544-84.692-14.99-101-0.5229-2.475-2.1295-10.8-3.5703-18.5-2.3572-12.598-4.1859-21.869-8.9749-45.5-0.8359-4.125-1.9509-9.3-2.4778-11.5-0.5268-2.2-2.121-9.4-3.5427-16-4.7861-22.219-15.678-66.978-18.858-77.5-0.7482-2.475-2.5883-9-4.089-14.5-5.6848-20.835-14.495-48.405-20.048-62.739-0.8535-2.2032-4.4957-3.121-22.468-5.6621-48.188-6.8133-130.14-12.543-265.5-18.562-18.15-0.80713-35.78-1.7172-39.178-2.0225-7.973-0.71617-8.1768-0.12927-3.0018 8.6468 4.2624 7.2285 17.976 33.217 26.299 49.839 5.7946 11.573 22.382 46.015 22.382 46.475 0 0.20401 2.25 5.1654 5 11.025 2.75 5.8599 5 10.831 5 11.048 0 0.21625 1.0792 2.769 2.3983 5.6728s3.6157 8.2046 5.1036 11.78c1.4879 3.575 3.5164 8.3 4.5077 10.5 2.1866 4.8526 16.097 39.678 22.098 55.326l4.3439 11.326 9.5242-0.57915c5.2384-0.31853 14.024-1.0288 19.524-1.5784 60.617-6.0572 101.81-7.5063 110-3.8696 8.7445 3.8837 73.601 68.401 122.11 121.47 43.738 47.851 50.961 54.971 49.835 49.13zm-376.24-93.48c6.7204-6.2852 29.164-33.872 34.217-42.056 0.96306-1.5601-2.1047-15.134-3.8409-16.995-0.97684-1.0469-2.6559 0.3786-8.5961 7.2983-13.004 15.148-20.841 18.721-10.644 4.8518 18.346-24.95 17.304-20.731 10.325-41.849-5.768-17.452-6.867-18.815-10.727-13.303-5.93 8.48-25.65 29.8-27.55 29.8-2.4062 0-1.7443-1.0673 17.162-27.671 12.804-18.017 12.763-13.609 0.42143-45.079-1.2483-3.1831-2.3035-2.8346-6.0556 2-16.83 21.69-33.87 39.41-33.87 35.23 0-0.78481 4.1356-6.9625 11.367-16.98 25.069-34.727 24.187-32.471 17.791-45.503-3.2248-6.5709-4.1702-6.9667-6.585-2.7563-1.6974 2.9597-6.8231 10.216-21.073 29.833-19.256 26.508-62.8 78.009-78.65 93.021-6.404 6.0656-6.2168 6.9172 2.3997 10.918 3.9875 1.8514 11.864 5.5153 17.502 8.142 5.6388 2.6267 13.514 6.1859 17.5 7.9092 3.9862 1.7234 9.4977 4.1605 12.248 5.4157 14.938 6.8186 31.859 13.497 48 18.945 7.3418 2.478 10.147 3.2676 12.293 3.4601 0.71106 0.0638 3.5783-2.0215 6.3717-4.634zm-130.3-58.5c33.07-34.948 73.954-85.72 102.92-127.82 6.0081-8.7306-4.2215-40.058-19.733-60.431-0.41876-0.55-2.9056-5.05-5.5263-10-7.6379-14.426-6.3133-14.426-16.532-0.003-6.8756 9.7044-27.925 38.001-34.22 46.003-31.93 40.584-39.591 50.034-61.585 75.968-6.982 8.2326-17.588 20.833-23.568 28-5.9806 7.1674-12.661 14.893-14.846 17.168-4.3527 4.5318-4.2064 7.4592 0.4465 8.936 1.2257 0.38903 9.6076 4.2445 18.626 8.5677 9.0189 4.3232 16.554 7.8604 16.744 7.8604 0.19059 0 4.6384 2.0325 9.8841 4.5166 6.6807 3.1637 10.262 4.3348 11.956 3.9096 1.8189-0.45651 2.9769 0.0352 4.6708 1.9834 3.0598 3.519 2.9899 3.5493 10.758-4.6596zm420.14-229.62c0-10.601-47.706-39.163-81.161-48.592-2.5636-0.72249-5.1509-1.6164-5.7496-1.9864-0.5988-0.37002-7.0513-2.1539-14.339-3.9641-53.7-13.32-120.89-21.72-205.3-25.65-13.75-0.64-34.77-1.68-46.71-2.3l-21.7-1.14 0.53892 2.146c0.29641 1.1803 6.4644 11.143 13.707 22.14 7.2422 10.997 14.645 22.31 16.45 25.141 3.9378 6.175 5.9852 7.0729 16.128 7.0729 4.2788 0 14.712 0.42454 23.185 0.94341 8.4729 0.51888 25.53 1.4254 37.905 2.0144 12.375 0.58906 29.25 1.5076 37.5 2.0412 8.25 0.53358 22.425 1.436 31.5 2.0054s21.9 1.4683 28.5 1.9976c6.6 0.52926 18.075 1.4474 25.5 2.0402 28.142 2.2471 78.03 7.2114 90 8.9561 3.575 0.52104 8.3 1.1568 10.5 1.4128 4.3565 0.50691 24.28 3.9476 31.5 5.4397 5.9267 1.2249 12 1.3679 12 0.28246zm-1129.5-130.41c7.939-11.73 18.151-25.47 22.821-30.72 0.73491-0.825 2.7698-3.525 4.5219-6 4.0414-5.7088 8.3209-11.28 14.646-19.068 24.464-30.119 34.004-41.772 40.881-49.932 11.266-13.369 33.93-39.367 40.549-46.514 3.0635-3.3078 9.6074-10.508 14.542-16 8.9783-9.9928 21.082-22.613 44.528-46.428 15.918-16.168 40.663-39.051 53.341-49.327 8.055-6.5285 9.5978-8.2022 8.5-9.2209-2.915-2.705-91.779-22.507-102.35-22.807-2.5879-0.07336-4.6001 1.0458-9.6233 5.3523-26.323 22.567-65.319 60.772-92.318 90.445-6.5056 7.15-13.923 15.25-16.484 18-8.0483 8.6444-36.175 41.736-43.016 50.609-1.9543 2.5348-6.643 8.533-10.419 13.329l-6.8662 8.7205 2.2461 11.171c3.1095 15.465 13.93 58.338 21.496 85.171 1.861 6.6 3.8764 13.918 4.4788 16.263 1.3763 5.3569 3.3016 4.6697 8.5199-3.0412zm-39.961-134.49c0.577-0.4 2.128-2.31 3.448-4.23 2.291-3.34 4.898-6.54 15.004-18.41 2.475-2.9066 6.525-7.6986 9-10.649 31.626-37.701 92.896-101.86 117.97-123.53 11.341-9.8019 11.598-9.4158-8.0463-12.126-74.69-10.295-130.58-9.651-141.83 1.644-9.576 9.606-13.551 47.342-9.279 88.076 1.9002 18.121 5.0776 41.917 7.2105 54 1.0194 5.775 2.4194 13.988 3.1111 18.25 1.2686 7.8176 1.5134 8.3181 3.4158 6.9847z"/>
</svg>
