<!DOCTYPE svg PUBLIC "-//W3C//DTD SVG 20010904//EN" "http://www.w3.org/TR/2001/REC-SVG-20010904/DTD/svg10.dtd">
<svg version="1.0" xmlns="http://www.w3.org/2000/svg" width="561px" height="311px" viewBox="0 0 5610 3110" preserveAspectRatio="xMidYMid meet">
<g id="layer1" fill="#000000" stroke="none">
 <path d="M441 2929 c-6 -13 -60 -298 -121 -633 -96 -523 -110 -611 -97 -621 8 -5 772 -183 1698 -394 926 -211 1686 -385 1688 -387 3 -2 -40 -69 -94 -149 -68 -100 -96 -148 -89 -155 6 -6 163 -24 348 -40 l338 -30 210 -201 c178 -172 211 -200 223 -188 8 8 71 158 140 334 69 176 130 324 135 329 5 5 156 44 335 86 179 42 330 81 335 86 5 5 6 14 2 20 -5 7 -603 417 -669 458 0 1 16 165 38 366 22 201 37 371 34 378 -7 20 -27 7 -284 -197 -130 -103 -242 -190 -248 -194 -8 -5 -98 47 -233 133 -121 77 -226 143 -234 146 -22 8 -27 -9 -61 -176 -23 -115 -35 -155 -46 -154 -8 1 -754 271 -1659 599 -905 329 -1653 600 -1662 603 -11 3 -21 -4 -27 -19z"/>
 </g>

</svg>