<?xml version="1.0" encoding="utf-8"?>

<!DOCTYPE svg PUBLIC "-//W3C//DTD SVG 1.1//EN" "http://www.w3.org/Graphics/SVG/1.1/DTD/svg11.dtd">
<svg version="1.1" id="Layer_1" xmlns="http://www.w3.org/2000/svg" xmlns:xlink="http://www.w3.org/1999/xlink" x="0px" y="0px"
	 viewBox="0 0 2612 1597.552" enable-background="new 0 0 2612 1597.552" xml:space="preserve">
<path d="M2584.664,65.36c-0.426-8.084-1.323-17.646-6.184-25.866c-5.4-9.132-24.638-11.692-32.689-4.183
	c-45.585,42.511-57.747,39.178-89.76,53.981c-76.568,35.407-136.225,102.37-182.396,171.648
	c-130.361,46.721-205.274,65.955-272.138,156.197c-65.754,88.744-7.856,55.725-157.034,119.791
	c-176.354,75.738-407.032,197.318-407.032,197.318c-15.072,3.087-5.113-4.056-55.329-58.736
	c-16.663-18.144-26.22-17.337-16.206-50.212c37.38-122.718,89.331-366.023,311.676-404.053c12.143-2.077,15.951,7.385,23.36,11.52
	c36.125,20.166,33.036,8.566,73.138,7.868c11.191-0.195,21.632,12.266,29.902,18.775c55.968,44.049,70.659,153.883,8.562,200.233
	c-56.036,41.826-143.229-10.317-117.707-58.325c5.4-10.157,28.628-30.401,27.628-29.469c10.094-9.413,23.612-6.179,32.18-18.274
	c17.397-24.557,1.328-81.713-31.62-74.027c-9.317,2.173-50.424,24.701-63.36,37.507c-35.22,34.867-60.657,91.398-37.839,145.916
	c33.186,79.29,142.367,106.273,215.042,67.269c107.653-57.776,107.948-216.432,36.258-301.962
	c-19.763-23.771-52.966-47.011-80.292-65.107c-18.751-12.411-31.189-32.597-55.575-34.918
	c-26.887-2.559-39.257,17.403-61.704,26.146c-29.113,11.339-133.869,3.865-259.255,169.84
	c-49.304,65.264-70.797,145.309-97.358,221.388c-2.476,7.092-5.776,15.96-12.932,13.62c-7.156,2.34-10.456-6.528-12.932-13.62
	c-39.642-113.549-55.654-189.834-154.88-287.843c-98.316-97.11-178.022-94.15-201.732-103.384
	c-22.447-8.743-34.817-28.705-61.704-26.146c-24.386,2.321-36.824,22.508-55.575,34.918c-26.255,17.387-59.239,40.45-79.033,63.616
	c-72.884,85.001-73.359,245.298,34.999,303.453c118.688,63.699,275.341-47.763,207.927-170.457
	c-27.771-50.544-46.732-54.848-74.796-71.364c-6.124-3.604-12.368-7.257-19.289-8.872c-32.857-7.665-49.061,49.409-31.621,74.027
	c8.569,12.095,22.086,8.86,32.18,18.274c15.995,14.916,22.996,20.756,27.628,29.469c25.483,47.934-61.626,100.184-117.707,58.325
	c-62.097-46.35-47.406-156.184,8.562-200.233c8.27-6.509,18.711-18.969,29.902-18.775c40.431,0.704,37.077,12.262,73.138-7.868
	c7.409-4.136,11.216-13.598,23.36-11.52c148.793,25.45,231.797,148.138,277.674,291.274c0.326,1.016,38.276,121.559,38.135,133.887
	c-0.211,18.338-17.559,18.139-56.368,72.942c-6.466,9.131-7.828,17.248-19.301,14.898c0,0-216.789-115.616-407.032-197.318
	c-13.819-5.935-105.176-42.412-111.828-51.763c-30.922-43.47-65.354-124.21-177.116-171.92
	c-45.799-19.551-93.205-35.451-140.228-52.304C229.759,97.981,138.388,86.136,108.654,68.641
	c-15.597-9.177-29.256-21.03-42.445-33.33c-8.051-7.508-27.29-4.949-32.689,4.183c-10.323,17.459-8.879,82.442-3.372,107.647
	c3.428,15.687,7.716,31.593,10.674,47.286c2.667,14.146-1.432,29.336-0.568,43.817c4.581,76.809,49.108,97.479,53.27,115.306
	c5.026,21.576-15.177,114.895-0.372,181.932c10.74,48.628,40.856,96.902,64.404,140.38c3.278,6.053-11.929,17.741-14.695,22.234
	c-14.626,23.759-7.09,45.025-2.576,66.395c5.389,25.51-18.623,87.461,55.36,149.278c7.066,5.904,11.591,13.286,16.59,20.946
	c6.956,10.661,7.022,22.775,11.332,33.833c23.771,60.994,18.196,69.175,98.141,171.362c20.458,26.15,8.815,31.729,90.831,70.988
	c7.302,3.495,24.318,12.49,32.587,7.744c3.46-1.985,5.51-16.485,11.76-9.632c27.766,30.442,0.675-23.084,55.515,102.597
	c24.628,56.442,31.97,87.184,122.391,165.936c75.488,65.746,174.089,100.994,265.878,85.466
	c117.951-19.954,154.826-99.898,266.541-272.826c7.196-11.139,7.892-25.656,23.901-25.067c2.443,0.09,22.023-11.95,20.085,12.475
	c0,32.01-8.905,81.848-4.506,91.038c11.891,24.837,69.811-39.046,79.125-47.865c8.347-7.902,31.875-8.041,40.369,0
	c1.936,1.833,81.142,87.465,80.316,39.236c-1.285-74.904-19.417-107.078,13.31-95.309c0.365,0.131,0.727,0.438,1.078,0.425
	c16.01-0.589,16.705,13.928,23.901,25.067c32.934,50.98,80.753,125.145,113.907,172.768
	c80.906,116.215,217.428,127.993,336.083,69.599c68.11-33.519,158.675-114.287,186.829-179.711
	c74.769-173.751,48.296-115.934,73.486-143.807c6.251-6.917,8.323,7.627,11.78,9.611c13.149,7.546,77.227-31.234,90.083-39.201
	c17.487-10.837,21.541-24.456,33.334-39.531c82.062-104.894,75.351-112.886,98.141-171.362c4.31-11.058,4.375-23.171,11.332-33.833
	c4.999-7.661,9.524-15.042,16.59-20.946c40.295-33.669,56.231-75.367,55.315-105.914c-0.451-15.039-3.208-27.96,0.046-43.365
	c4.516-21.38,12.05-42.635-2.576-66.395c-2.766-4.493-17.973-16.181-14.695-22.234c77.104-142.36,73.821-137.53,65.075-285.863
	c-0.665-11.269-3.628-25.349-1.042-36.449c2.523-10.81,16.229-20.826,22.717-29.663c42.96-58.527,26.532-111.145,29.985-129.46
	C2581.523,139.557,2588.882,145.447,2584.664,65.36z M916.382,714.69c64.022,4.279,173.783,79.958,222.333,113.703
	c1.721,1.196,7.25,6.288,5.323,9.045c-1.9,2.72-6.458-0.704-9.114-1.247c-52.196-10.685-139.365-52.703-187.389-75.746
	c-10.909-5.234-41.58-13.34-43.952-24.584C901.945,728.099,908.231,714.145,916.382,714.69z M274.278,777.52
	c-6.805,1.417-18.246,0.624-23.585-4.438c-7.146-6.781-6.593-14.707-16.895-101.196c-0.87-7.301-6.838-26.655-3.55-33.133
	c4.029-7.937,28.308-4.334,33.111-2.035c12.488,5.975,9.865,37.71,11.326,49.157c2.827,22.145,5.654,44.29,8.482,66.436
	C284.76,764.792,288.969,774.461,274.278,777.52z M143.991,290.296c-4.941-8.697-15.264-23.494-12.593-33.978
	c4.032-15.824,34.954-32.597,41.769-30.986c8.381,1.991,15.105,15.382,19.515,21.92c21.716,32.193,56.124,79.168,39.666,119.957
	c-5.214,12.924-16.49,24.586-29.61,12.778c-4.263-3.837-20.914-26.206-30.417-40.577
	C161.937,323.704,153.294,306.67,143.991,290.296z M207.411,479.241c88.921,25.425,81.991,115.963,47.008,116.583
	c-14.244,0.252-35.424-15.277-46.769-22.888C140.394,527.82,162.443,466.383,207.411,479.241z M312.887,906.62
	c-33.314,3.975-88.465-15.337-101.296-48.888c-16.509-43.18,63.226-66.946,118.184-13.795
	C350.961,864.428,344.676,902.827,312.887,906.62z M426.949,1126.2c-88.743-1.276-130.818-88.096-76.626-115.9
	c32.338-16.592,76.046,9.95,97.856,33.894C473.288,1071.76,479.174,1126.952,426.949,1126.2z M347.174,466.79
	c-7.665-17.349-2.504-78.841,42.671-70.227c22.504,4.291,46.49,18.215,67.859,26.613c89.639,35.227,201.877,133.352,267.648,204.389
	c8.296,8.96,19.726,13.906,27.527,22.889c9.782,11.264,1.478,44.263-20.048,31.884c0,0-58.492-39.59-97.384-63.177
	C448.641,505.866,368.348,514.716,347.174,466.79z M647.432,1330.889c-161.63-15.387-56.347-118.691,7.992-83.34
	C684.658,1263.611,713.23,1337.152,647.432,1330.889z M693.727,1454.916c-12.621-8.909-11.318-29.083-4.914-42.011
	c13.952-28.166,90.023-57.856,104.166-16.064C802.611,1425.316,742.743,1489.513,693.727,1454.916z M967.171,1432.71
	c-8.515,27.189-47.584,115.427-87.011,93.636c-15.412-8.519-32.994-25.24-27.427-44.812c5.169-18.172,30.701-34.063,44.842-45.625
	c13.986-11.435,27.155-24.623,45.606-28.341C956.04,1404.978,971.613,1418.523,967.171,1432.71z M1114.737,1174.088
	c-5.751,27.007-24.27,52.066-40.343,73.939c-54.935,74.761-93.71,94.525-179.528,126.328c-20.205,7.488-31.476,24.299-64.431-0.799
	c-16.927-12.891-39.506-28.634-40.139-69.155c-0.499-31.924,13.82-44.441,31.867-55.707c16.644-10.39,47.665-12.64,66.631-7.166
	c65.83,18.999,203.887-95.268,221.239-93.095C1120.998,1149.807,1116.071,1167.823,1114.737,1174.088z M1163.877,1084.057
	c-149.841-17.636-167.133,15.648-263.604,0.863c-93.226-14.287-181.506-67.535-245.511-138.486
	c-15.197-16.846-27.119-36.602-41.483-54.225c-5.772-7.082-29.15-32.466-17.896-42.27c7.092-6.173,120.225-23.414,165.597-25.565
	c99.674-4.726,256.964,12.093,339.514,75.424c45.128,34.622,69.361,94.953,68.589,151.562
	C1169.082,1061.955,1165.432,1073.545,1163.877,1084.057z M2337.315,685.876c1.461-11.447-1.161-43.183,11.326-49.157
	c4.636-2.218,28.994-6.076,33.111,2.035c3.288,6.478-2.68,25.831-3.55,33.133c-0.321,2.698-8.248,69.25-8.619,72.359
	c-1.997,16.771-2.346,39.42-31.861,33.274C2321.986,774.243,2326.268,772.412,2337.315,685.876z M1473.285,828.393
	c49.942-34.713,158.38-109.429,222.333-113.703c8.793-0.588,15.417,15.698,12.26,22.882c-4.429,10.076-33.647,18.187-43.414,22.874
	c-31.244,14.991-62.7,29.539-94.306,43.749c-33.925,15.253-100.202,36.1-102.197,33.244
	C1466.035,834.681,1471.563,829.59,1473.285,828.393z M1448.123,1084.057c-1.555-10.512-5.205-22.102-5.205-32.697
	c-0.773-56.609,23.461-116.939,68.589-151.562c56.332-43.218,131.364-58.948,200.399-68.816
	c128.517-18.371,209.897,0.856,291.798,14.291c28.831,4.729,13.543,24.208-4.983,46.937
	c-20.221,24.808-41.821,66.684-112.576,118.262c-153.418,111.837-274.794,70.593-328.03,68.901
	C1522.189,1078.231,1485.377,1079.672,1448.123,1084.057z M1731.841,1526.346c-39.427,21.791-78.496-66.447-87.011-93.636
	c-4.45-14.214,11.157-27.727,23.99-25.142c18.451,3.717,31.62,16.905,45.606,28.341c14.141,11.562,39.674,27.454,44.842,45.625
	C1764.835,1501.107,1747.253,1517.827,1731.841,1526.346z M1751.303,1386.834c-11.728,0.527-23.439-8.502-34.169-12.479
	c-79.47-29.451-147.116-58.748-202.626-167.201c-5.607-10.955-14.617-20.724-17.245-33.067c-1.334-6.263-6.26-24.28,4.704-25.652
	c19.747-2.472,153.974,112.508,221.239,93.095c23.797-6.868,61.827-2.974,84.095,20.24c22.123,23.062,16.987,69.967-3.27,92.378
	C1798.564,1360.196,1771.789,1385.914,1751.303,1386.834z M1918.273,1454.916c-48.549,34.268-108.996-29.269-99.252-58.074
	c14.142-41.792,90.214-12.103,104.166,16.064C1929.591,1425.833,1930.895,1446.007,1918.273,1454.916z M1964.568,1330.889
	c-65.563,6.241-37.513-67.119-7.992-83.34C2020.979,1212.162,2126.103,1315.511,1964.568,1330.889z M1879.169,682.339
	c-21.53,12.382-29.824-20.626-20.047-31.884c7.801-8.983,19.231-13.929,27.527-22.889c66.13-71.425,177.794-169.077,267.648-204.389
	c21.369-8.398,45.355-22.321,67.859-26.613c45.121-8.605,50.336,52.876,42.671,70.227c-13.591,30.758-65.537,44.929-86.684,53.125
	C2011.958,584.318,1878.169,682.914,1879.169,682.339z M2213.686,1122.05c-85.499,21.447-76.717-48.376-49.865-77.855
	c21.81-23.944,65.518-50.486,97.856-33.894C2305.605,1032.839,2288.537,1103.272,2213.686,1122.05z M2400.409,857.732
	c-12.831,33.551-67.981,52.863-101.296,48.888c-31.789-3.793-38.075-42.192-16.888-62.683
	C2336.98,790.982,2416.998,814.343,2400.409,857.732z M2404.351,572.936c-11.345,7.61-32.525,23.14-46.769,22.888
	c-35.23-0.624-41.496-91.277,47.008-116.583C2450.199,466.2,2471.242,528.064,2404.351,572.936z M2468.01,290.296
	c-19.396,34.138-21.725,42.663-53.421,83.599c-14.573,18.824-27.853,10.873-34.937-6.686
	c-16.281-40.353,17.174-86.614,39.666-119.957c4.41-6.538,11.134-19.928,19.515-21.92c6.723-1.589,37.707,15.045,41.769,30.986
	C2483.274,266.801,2472.951,281.599,2468.01,290.296z"/>
</svg>
