<?xml version="1.0" encoding="utf-8"?>
<svg version="1.1" id="Layer_1" xmlns="http://www.w3.org/2000/svg" xmlns:xlink="http://www.w3.org/1999/xlink" x="0px" y="0px"
	 viewBox="0 0 2616.683 1532.75" enable-background="new 0 0 2616.683 1532.75" xml:space="preserve">
<path d="M2508.412,1309.447c130.251-130.514,91.996-412.073-47.482-494.318c-15.616-21.448-48.151-22.146-59.352-2.544
	c-11.87,20.773-6.077,55.514,15.262,61.048c21.889,5.677,28.281,0.572,40.699-8.479c65.76,46.251,92.808,124.325,94.312,223.397
	l-0.905-3.245c-37.714,10.512-76.543,20.228-116.324,29.181l-11.33-30.056h5.844c3.491,0,3.499-5.286,0-5.286h-7.836l-13.265-35.187
	c-0.99-2.626-3.922-3.971-6.555-2.964c-2.63,0.99-3.955,3.925-2.964,6.555l11.911,31.597h-66.504c-3.491,0-3.499,5.286,0,5.286
	h68.497l12.185,32.322c-75.139,16.592-153.762,30.363-235.184,41.243l-24.705-66.782h62.622c3.491,0,3.499-5.286,0-5.286h-64.577
	l-13.32-36.005c-0.977-2.636-3.898-3.978-6.538-3.007c-2.636,0.977-3.981,3.902-3.007,6.538l12.013,32.475h-7.24
	c-3.491,0-3.499,5.286,0,5.286h9.196l25.218,68.171c-13.965,1.819-28.035,3.526-42.16,5.173l-334.166-862.147l45.307-5.403
	c4.65-0.555,7.969-4.773,7.416-9.423c-0.553-4.648-4.753-7.977-9.423-7.416l-493.708,58.871l-50.81-57.676V234.89h-15.216V24.049
	c0-5.619-4.555-10.174-10.174-10.174h0c-5.619,0-10.174,4.555-10.174,10.174V234.89h-16.391v47.636l-77.808,78.048l-430.232,51.302
	c-4.65,0.555-7.97,4.773-7.416,9.423c0.513,4.309,4.175,7.475,8.409,7.475c0.839,0-1.357,0.223,35.527-4.175
	c-56.906,147.284-90.835,244.834-82.564,413.724l-289.286,290.181l1.176,1.171c-8.153-1.298-16.297-2.601-24.347-3.938v-57.091
	H367.78v-11.588c0-10.146-8.225-18.371-18.371-18.371h0c-10.146,0-18.371,8.225-18.371,18.371v137.64
	c-20.673,14.425-20.026,30.296,0,47.482v78.481c0,6.927-1.592,13.762-4.623,19.99c-20.244,41.604-42.675,74.388-70.556,87.497
	c-60.303,28.354-122.35,42.393-184.024,45.176c-10.552-21.829-43.493-14.297-43.493,9.937c0,23.629,31.623,31.637,42.963,11.01
	c99.087-4.899,181.683-0.252,238.136,19.528c9.687,3.394,19.904,5.019,30.168,4.936c698.206-5.621,1390.233-14.361,1739.772-37.17
	c211.512-13.803,348.519-64.205,414.617-154.316c10.135,47.088,26.284,106.41,37.307,124.639
	c10.06,16.637,31.904,9.024,33.068-10.175c0.848-13.99-29.611-80.635-53.417-120.4L2508.412,1309.447z M2541.284,1094.968
	L2541.284,1094.968c3.535-0.965,7.093-1.914,10.609-2.892c0.072,7.893,0.003,15.902-0.239,24.052
	c-3.444,1.179-6.915,2.299-10.37,3.455V1094.968z M1662.542,715.996l371.541,428.193l-378.426-272.062
	C1654.85,818.929,1657.089,766.864,1662.542,715.996z M2062.859,1177.353l4.752,5.477h-14.232v20.914h12.436v7.126l-259.908-16.861
	l-121.876-85.693l367.564,62.453L2062.859,1177.353z M2055.671,1163.889l7.522,5.408l-3.319-0.564L2055.671,1163.889z
	 M2063.378,1172.77l5.263,0.894v3.141l-3.575-2.089L2063.378,1172.77z M1341.074,1167.251l66.271,4.299l8.57,62.226l-71.778-11.618
	L1341.074,1167.251z M1342.834,1259.676c-10.142,0.099-20.307,0.182-30.507,0.245v-2.875c10.119,0.329,20.241,0.657,30.413,0.95
	L1342.834,1259.676z M1410.798,1171.774l90.387,5.864l18.222,72.889l-99.992-16.184L1410.798,1171.774z M1520.302,1254.105
	l0.089,0.359c-33.046-0.271-65.837-0.73-98.392-1.362l-2.1-15.247L1520.302,1254.105z M1504.74,1177.869l71.47,4.636l23.459,70.533
	c-61.126,2.619-50.55,2.297-76.617-1.922L1504.74,1177.869z M1579.864,1182.743l68.178,4.423l24.771,62.374
	c-23.057,1.226-46.263,2.342-69.617,3.354L1579.864,1182.743z M1651.789,1187.409l66.843,4.337l27.031,53.521
	c-22.95,1.466-46.038,2.826-69.279,4.074L1651.789,1187.409z M1681.486,1110.675l117.924,82.912l-78.625-5.101L1681.486,1110.675z
	 M1748.972,1251.818l0.845,1.674c-12.127,0.196-24.224,0.37-36.294,0.52C1725.38,1253.312,1737.191,1252.575,1748.972,1251.818z
	 M1749.341,1245.025L1722.56,1192l82.176,5.331l56.245,39.545C1824.132,1239.886,1786.928,1242.603,1749.341,1245.025z
	 M1811.232,1197.752l254.583,16.516v5.868l-0.391-3.368c-65.284,7.558-131.629,14.108-199.157,19.68L1811.232,1197.752z
	 M1676.646,1103.623c-8.868-55.271-15.044-109.541-18.356-162.744l385.003,225.037L1676.646,1103.623z M2052.764,1167.525
	L1658.05,936.812c-1.21-20.315-1.966-40.46-2.329-60.459c431.233,310.026,383.355,273.591,398.882,291.484L2052.764,1167.525z
	 M1673.387,1104.98l2.207,1.552l41.263,81.699l-66.453-4.311l-34.77-87.552C1634.646,1099.906,1653.871,1102.875,1673.387,1104.98z
	 M1611.696,1095.644l34.961,88.033l-67.947-4.408l-32.592-97.992C1567.777,1086.5,1589.597,1091.437,1611.696,1095.644z
	 M1542.231,1080.345l32.823,98.687l-71.178-4.618l-27.609-110.436C1498.184,1069.361,1520.13,1074.979,1542.231,1080.345z
	 M1472.543,1063.073l27.778,111.11l-89.995-5.838l-16.848-122.331C1418.094,1050.05,1448.156,1057.115,1472.543,1063.073z
	 M1389.98,1045.469l16.892,122.652l-65.989-4.281l-6.959-124.772C1352.793,1040.503,1371.488,1042.557,1389.98,1045.469z
	 M1330.098,1209.963l-2.039-43.556l9.608,0.624l3.044,54.573l-4.643-0.752v-10.889H1330.098z M1327.898,1162.998l-5.841-124.738
	c2.823,0.181,5.643,0.368,8.459,0.572l6.959,124.787L1327.898,1162.998z M1301.539,286.496l46.721,53.034l-25.694,3.064
	l-21.027-40.917V286.496z M1301.539,309.099l17.433,33.924l-17.433,2.079V309.099z M1284.056,1036.377
	c3.208,0.118,6.406,0.259,9.607,0.393l4.287,124.284l-13.894-0.901V1036.377z M1255.849,295.175h15.165v53.566l-18.445,2.199
	L1255.849,295.175z M1249.514,287.398l-3.786,64.358l-68.519,8.17L1249.514,287.398z M948.299,1064.69
	c66.221-16.304,126.301-34.04,206.319-32.785c19.54,1.205,39.064,1.904,58.532,2.461l-12.041,120.407l-453.772-29.438
	C799.725,1092.427,874.852,1082.774,948.299,1064.69z M1195.435,1245.604l4.338-43.379l53.759,8.701v37.207
	C1234.068,1247.357,1214.7,1246.516,1195.435,1245.604z M1253.532,1254.931v5.157c-19.721-0.014-39.574-0.106-59.52-0.252
	l0.748-7.481C1214.255,1253.279,1233.833,1254.146,1253.532,1254.931z M1196.756,1198.303l-416.717-67.45l420.733,27.296
	L1196.756,1198.303z M1200.111,1198.847l4.048-40.478l49.373,3.203v45.921L1200.111,1198.847z M695.751,842.873
	c4.98,92.92,23.133,187.805,48.998,283.779l-0.214,1.891l451.884,73.14l-4.376,43.758c-85.43-4.082-168.909-9.487-250.245-16.248
	l-0.282,3.378v-52.568H929.08v5.653c-187.676-13.056-363.006-30.793-519.589-55.639L695.751,842.873z M684.278,1216.597
	l1.227-42.938l119.155,8.721l1.835,45.273L684.278,1216.597z M814.946,1226.818l-1.232-40.685l118.736,5.819l0.614,42.427
	L814.946,1226.818z M1085.695,1289.767c-46.369-2.104-92.378-4.745-137.961-8.018v-20.082c46.611,1.511,92.563,2.674,137.961,3.528
	V1289.767z M1085.695,1258.413c-45.364-0.854-91.283-2.017-137.851-3.526l-0.11,3.411v-7.638h-6.218v-14.689
	c47.345,3.935,95.435,7.396,144.179,10.423V1258.413z M1100.927,1290.444c-3.696-0.157-7.383-0.327-11.075-0.492h2.626v-24.63
	c2.813,0.051,5.64,0.11,8.449,0.158V1290.444z M1187.24,1293.47c-27.619-0.76-55.111-1.709-82.47-2.856h2.94V1265.6
	c27.625,0.457,55.019,0.784,82.217,0.995L1187.24,1293.47z M1092.478,1258.544v-11.72c32.654,1.997,65.63,3.781,98.889,5.372
	l-0.761,7.615C1158.198,1259.561,1125.498,1259.142,1092.478,1258.544z M1253.533,1294.914h-0.001
	c-21.032-0.347-42.006-0.78-62.893-1.342l2.696-26.954c20.177,0.149,40.248,0.236,60.198,0.25V1294.914z M1253.532,1035.864v122.309
	l-49.035-3.181l12.053-120.528c17.472,0.485,34.894,0.873,52.226,1.4H1253.532z M1291.977,1295.611
	c-1.031-0.025-4.148-0.097-7.921-0.178v-28.629c2.641-0.008,5.283-0.015,7.921-0.025V1295.611z M1291.977,1260.027
	c-2.641,0.01-5.275,0.024-7.921,0.031v-3.983c2.642,0.095,5.275,0.197,7.921,0.29V1260.027z M1291.977,1249.572
	c-2.641-0.093-5.283-0.184-7.921-0.279v-18.981h7.921V1249.572z M1291.977,1187.916v22.046h-7.921v-46.411l14.011,0.909
	l0.809,23.456H1291.977z M1297.061,1036.914c7.215,0.319,14.416,0.679,21.59,1.116l5.841,124.747l-23.143-1.501L1297.061,1036.914z
	 M1301.467,1164.682l23.184,1.504l2.05,43.777h-14.376v-22.045h-10.057L1301.467,1164.682z M1312.325,1230.312h23.742v-6.026
	l4.836,0.783l1.457,26.129c-10.04-0.29-20.045-0.604-30.035-0.929V1230.312z M1312.326,1296.074v-29.358
	c10.345-0.063,20.599-0.182,30.884-0.283l1.688,30.267C1334.061,1296.52,1323.202,1296.31,1312.326,1296.074z M1344.33,1225.623
	l72.069,11.665l2.169,15.75c-24.408-0.483-48.682-1.063-72.807-1.749L1344.33,1225.623z M1346.14,1258.086
	c13.468,0.382,26.977,0.735,40.533,1.054c-13.429,0.202-26.915,0.367-40.447,0.504L1346.14,1258.086z M1348.297,1296.751
	l-1.692-30.35c24.703-0.251,49.297-0.571,73.661-1.038l4.432,32.178C1399.346,1297.445,1373.866,1297.164,1348.297,1296.751z
	 M1428.123,1297.565l-4.446-32.278c33.232-0.652,66.157-1.502,98.781-2.557l8.565,34.258
	C1496.943,1297.498,1462.633,1297.677,1428.123,1297.565z M1534.503,1296.923l-8.576-34.303c38.205-1.254,24.033-1.17,45.267-1.114
	v34.65h2.128C1560.412,1296.453,1547.48,1296.72,1534.503,1296.923z M1577.978,1296.064v-34.542
	c17.18,0.032-0.411,0.038,24.517,0.017l11.143,33.505C1601.772,1295.411,1589.903,1295.778,1577.978,1296.064z M1617.18,1294.939
	l-11.112-33.412c23.661-0.028,47.461-0.162,71.358-0.371l12.286,30.936C1665.661,1293.224,1641.481,1294.167,1617.18,1294.939z
	 M1728.469,1290.119c-11.693,0.647-23.427,1.232-35.177,1.794l-12.228-30.79c15.755-0.144,31.55-0.319,47.405-0.541V1290.119z
	 M1765.791,1287.865c-10.157,0.654-20.334,1.28-30.54,1.864v-29.25c5.982-0.088,11.962-0.175,17.957-0.274l12.583,24.915V1287.865z
	 M1765.792,1277.596l-8.813-17.449c2.944-0.049,5.866-0.081,8.813-0.134V1277.596z M1880.975,1278.817
	c-35.805,3.35-71.939,6.226-108.4,8.631v-27.553c35.884-0.663,72.031-1.538,108.4-2.598V1278.817z M1880.975,1250.527
	c-42.805,1.249-85.259,2.206-127.389,2.903l-0.935-1.851c43.255-2.806,86.04-5.976,128.324-9.561V1250.527z M1914.824,1275.495
	c-9.001,0.925-18.021,1.823-27.066,2.686v-21.067c8.991-0.268,18.046-0.589,27.066-0.881V1275.495z M1921.607,1274.798v-18.788
	c38.394-1.269,77.045-2.757,115.945-4.465v9.187h0.001C1999.328,1266.032,1960.672,1270.709,1921.607,1274.798z M2037.553,1244.789
	c-50.359,2.212-100.297,4.054-149.794,5.531v-8.896c50.579-4.343,100.486-9.254,149.794-14.717V1244.789z M2057.336,1258.008
	c-4.313,0.625-8.675,1.181-13,1.79v-8.552c7.299-0.325,14.571-0.625,21.887-0.966L2057.336,1258.008z M2070.336,1246.703
	l-0.16-3.388c-8.631,0.405-17.233,0.784-25.841,1.167v-18.534c7.157-0.802,14.346-1.574,21.479-2.399v8.457h4.522V1246.703z
	 M2097.469,1244.442h-9.043v-28.706l9.043,0.587V1244.442z M2097.469,1212.923l-9.043-0.587v-20.041l9.043,5.286V1212.923z
	 M2097.469,1163.609v30.046l-9.043-5.286v-23.063h-19.785v3.727l-22.61-16.255l-382.993-441.389
	c5.202-46.779,13.121-92.545,23.93-137.236l422.703,589.456H2097.469z M2113.842,1163.611l-425.796-593.773
	c23.11-93.79,58.882-182.866,108.709-266.71l2.527-0.301l334.162,862.139c-3.328,0.384-6.636,0.79-9.973,1.164v-2.519H2113.842z
	 M2143.255,1204.309v-24.306h-17.657l-2.126-2.965v-7.492l0.377,3.372c19.364-2.173,38.582-4.509,57.649-7.002l2.425,6.554
	l0.385,26.637l1.404-0.019C2171.609,1200.935,2157.467,1202.698,2143.255,1204.309z M2187.695,1198.828l-0.243-16.816l5.947,16.075
	C2191.501,1198.342,2189.594,1198.578,2187.695,1198.828z M2203.602,1196.676c-0.13-0.906,0.561,1.176-11.77-32.158
	c19.325-2.592,38.489-5.35,57.488-8.268v33.357h1.641C2235.252,1192.131,2219.459,1194.473,2203.602,1196.676z M2252.711,1189.316
	v-33.59c21.301-3.297,42.405-6.784,63.271-10.488v32.561h1.521C2296.053,1181.959,2274.459,1185.804,2252.711,1189.316z
	 M2319.373,1177.44v-32.792c22.087-3.948,43.89-8.151,65.46-12.55v31.055h1.528
	C2364.206,1168.295,2341.875,1173.054,2319.373,1177.44z M2388.224,1162.716v-31.313c13.021-2.674,25.972-5.406,38.795-8.242
	l10.321,27.379C2421.069,1154.82,2404.696,1158.875,2388.224,1162.716z M2447.177,1147.931c-0.218-0.787,1.043,2.633-10.141-27.036
	c8.803-1.985,17.556-4.008,26.262-6.07v28.238h1.532C2458.958,1144.711,2453.077,1146.342,2447.177,1147.931z M2466.69,1142.539
	v-28.52c24.122-5.749,47.862-11.791,71.203-18.126v24.309h1.533C2515.433,1128.194,2491.183,1135.631,2466.69,1142.539z"/>
</svg>
